<svg width="761" height="1879" viewBox="0 0 761 1879" fill="none" xmlns="http://www.w3.org/2000/svg">
<path d="M1.46838 615.4C-1.70549 616.549 0.55431 614.528 5.98806 611.358C11.4217 608.187 36.0913 598.654 60.6171 590.376C85.1427 582.098 98.1747 576.779 89.5184 579.311C73.264 583.993 69.3199 583.015 76.2434 575.696C78.8396 572.952 73.8863 574.144 55.7083 580.123C34.3565 587.252 6.41574 594.361 18.1973 588.892C20.8422 587.935 22.573 586.105 22.5243 584.318C22.4757 582.531 38.1527 576.254 69.8916 564.763C101.102 553.463 117.307 546.994 116.73 545.399C116.345 544.335 114.373 543.846 111.728 544.804C104.322 547.485 105.714 539.763 113.408 534.571C120.236 530.295 120.573 529.571 114.754 531.678C111.051 533.019 102.78 536.615 96.817 539.977C88.7385 544.104 84.5065 545.637 82.8709 544.424C78.8783 541.659 80.9456 539.106 89.3607 534.255C93.7365 531.468 98.2561 527.425 99.7944 525.064C103.544 518.894 96.6186 519.597 76.0368 528.853C55.7916 537.386 39.6809 540.813 54.9728 533.472C67.6198 527.088 66.5112 519.069 53.4792 524.388C42.5631 528.942 37.5611 528.347 35.6357 523.029C34.4805 519.838 36.5478 517.285 44.0974 513.349C50.5891 509.796 53.7144 506.859 52.9443 504.732C52.3666 503.137 52.8469 501.158 53.9049 500.775C54.9629 500.392 69.3893 493.966 86.0756 485.519C102.425 477.795 137.819 463.176 164.268 453.601C211.347 436.556 212.212 435.641 210.672 431.386C209.517 428.195 211.199 424.579 215.911 421.068L222.691 415.005L213.169 418.452C207.879 420.367 200.281 422.517 196.049 424.049C188.115 426.921 184.266 422.901 190.372 418.284C192.296 416.987 193.112 414.285 191.477 413.072C189.649 411.328 192.63 409.647 203.931 406.157C212.588 403.625 218.743 400.795 218.165 399.199C217.01 396.009 223.838 391.732 244.083 383.199C252.883 379.412 263.8 374.858 280.871 367.474C289.142 363.878 299.337 358.984 311.311 354.048C314.485 352.898 317.466 351.218 320.64 350.068C322.227 349.494 323.814 348.919 325.737 347.621C327.853 346.855 328.382 346.664 332.95 344.408C347.04 338.706 362.717 332.428 379.452 325.768C539.203 261.314 741.274 188.154 907.905 134.442C938.971 124.398 996.679 105.31 1036.02 91.669C1103.05 68.6015 1122.29 62.2387 1203.66 35.7871C1217.6 31.3394 1238.43 24.4021 1305.8 0.611199C1296.47 17.8221 1256.72 101.387 1203.81 211.374C1168.09 286.259 1133.01 357.91 1125.89 371.313L1112.48 395.417L1120.36 377.526C1128.25 359.634 1127.04 354.656 1118.77 371.484C1116.23 376.016 1107.96 392.844 1100.17 407.693C1054.17 497.13 1018.61 570.76 997.027 621.881C988.664 641.751 973.573 676.087 964.394 698.659C937.095 762.077 911.767 819.368 890.812 867.256C879.902 891.657 870.53 913.697 861.975 933.035C857.121 944.416 852.939 954.351 849.239 962.308C823.622 1022.11 811.559 1049.94 795.266 1085.91C786.855 1103.99 777.771 1123.52 765.515 1150.82C761.141 1160.22 755.421 1172.52 748.02 1188.43C746.337 1192.05 745.184 1195.47 745.713 1195.28C746.242 1195.09 746.627 1196.15 746.82 1196.68C746.483 1197.41 747.926 1198.09 749.706 1198.05C752.014 1197.81 751.485 1198 748.504 1199.68C746.052 1201.17 744.128 1202.47 744.128 1202.47C743.792 1203.19 739.753 1205.26 739.031 1204.92C737.588 1204.24 735.087 1203.94 732.779 1204.17C731.192 1204.75 730.085 1203.34 730.036 1201.56C729.988 1199.77 729.747 1197.45 729.361 1196.39C728.976 1195.32 729.842 1194.41 731.621 1194.37C733.401 1194.32 734.988 1193.75 736.046 1193.37C737.104 1192.98 736.382 1192.64 734.074 1192.88C731.236 1193.3 730.851 1192.24 732.677 1187.37C734.84 1181.77 734.455 1180.71 730.703 1180.26C728.01 1179.43 717.1 1203.84 716.621 1212.43C716.189 1216.19 715.565 1219.43 713.978 1220C712.391 1220.58 711.333 1220.96 711.141 1220.43L710.756 1219.37L709.746 1221.54C708.881 1222.45 706.621 1224.47 704.698 1225.77C702.774 1227.07 701.187 1227.64 700.995 1227.11C700.995 1227.11 698.686 1227.34 696.234 1228.83C693.589 1229.79 691.81 1229.83 691.425 1228.77C691.569 1227.51 690.847 1227.17 689.982 1228.09C687.529 1229.58 685.989 1225.32 687.43 1219.39C688.535 1214.18 687.091 1213.5 682.187 1216.48C677.811 1219.26 673.05 1220.99 674.059 1218.82C674.396 1218.09 676.319 1216.79 677.906 1216.22C682.138 1214.69 682.282 1213.43 678.194 1213.71C675.886 1213.94 674.779 1212.54 675.788 1210.37C676.461 1208.92 676.076 1207.86 674.489 1208.43C672.373 1209.2 669.153 1215.18 671.461 1214.94C671.461 1214.94 671.51 1216.73 670.693 1219.43C670.405 1221.94 668.674 1223.77 667.087 1224.35C665.5 1224.92 664.106 1226.03 663.577 1226.22C663.241 1226.94 664.828 1226.37 666.415 1225.79C668.53 1225.03 669.588 1224.65 669.252 1225.37C668.916 1226.09 667.521 1227.2 665.742 1227.24C664.155 1227.82 662.231 1229.11 662.087 1230.37C661.078 1232.54 661.607 1232.35 664.925 1229.94C667.714 1227.73 668.435 1228.07 666.897 1230.43C665.888 1232.6 664.493 1233.71 664.301 1233.18C663.579 1232.84 661.8 1232.88 659.684 1233.65C655.981 1234.99 652.134 1237.58 645.02 1250.98C637.185 1264.05 625.889 1287.38 604.452 1330.63C600.895 1337.34 597.867 1343.85 594.983 1349.1C628.694 1338.1 645.622 1331.97 654.614 1328.71C663.607 1325.46 664.28 1324.01 666.011 1322.18C667.549 1319.82 668.944 1318.71 672.646 1317.37C676.349 1316.03 682.361 1314.46 694.047 1312.03C699.529 1310.65 712.61 1307.12 723.045 1304.54C740.358 1299.48 741.945 1298.9 741.126 1294.99C740.115 1290.54 732.275 1290.37 719.916 1294.24C712.511 1296.93 711.067 1296.25 712.365 1291.57C713.325 1287.61 713.133 1287.08 710.537 1289.82C706.065 1295.65 695.63 1298.23 696.205 1293.21C696.349 1291.95 694.762 1292.52 692.502 1294.55C690.243 1296.57 688.992 1296.42 689.329 1295.69C690.001 1294.25 683.798 1295.29 673.362 1297.87C663.648 1300.78 649.702 1305.23 634.554 1311.32C637.053 1305 639.744 1299.21 642.436 1293.42C648.251 1278.09 650.125 1275 656.905 1268.94C662.819 1263.79 664.694 1260.7 666.376 1257.09C667.529 1253.66 670.462 1250.19 673.251 1247.98C677.097 1245.39 677.483 1246.45 675.127 1251.51C673.445 1255.13 671.956 1259.28 671.812 1260.53C671.86 1262.32 668.016 1271.53 660.95 1286.72C679.801 1279.29 709.616 1269.1 716.349 1267.87C723.082 1266.63 730.68 1264.48 732.267 1263.91C733.854 1263.33 735.105 1263.48 734.624 1265.46C734.144 1267.44 734.144 1267.44 736.211 1264.89C737.75 1262.52 739.673 1261.23 741.645 1261.72C744.868 1262.35 750.543 1261.5 762.565 1258.35C768.577 1256.78 776.175 1254.63 785.36 1251.9C786.418 1251.52 787.476 1251.14 789.063 1250.56L791.179 1249.8C793.295 1249.03 795.411 1248.27 797.527 1247.5C806.519 1244.24 815.512 1240.99 825.226 1238.07C844.799 1230.99 865.621 1224.05 888.897 1215.62C968.629 1187.96 1002.29 1175.17 1027.97 1163.47C1046.44 1154.98 1063.17 1148.32 1065.14 1148.8C1067.11 1149.29 1077.69 1145.46 1088.61 1140.91C1105.68 1133.53 1110.64 1132.33 1121.7 1133.14C1129.01 1133.5 1133.62 1133.03 1132.18 1132.35C1129.1 1130.46 1129.97 1129.55 1136.56 1129.57C1138.87 1129.33 1141.75 1130.69 1142.52 1132.82C1143.48 1135.48 1142.09 1136.59 1136.42 1137.44C1131.27 1138.1 1129.88 1139.2 1131.51 1140.42C1134.59 1142.31 1122.76 1152.61 1107.66 1160.48C1099.05 1164.8 1097.32 1166.63 1100.21 1167.99C1104.54 1170.03 1098.43 1174.65 1086.46 1179.58C1082.76 1180.92 1077.18 1185.35 1073.91 1189.54C1068.76 1196.82 1064.58 1200.14 1056.31 1203.73C1054.72 1204.31 1054.05 1205.75 1054.96 1206.63C1055.88 1207.5 1054.87 1209.67 1052.61 1211.69C1050.35 1213.71 1049.53 1216.41 1050.45 1217.28C1051.36 1218.16 1044.87 1221.71 1035.54 1225.69C1023.04 1230.82 1017.27 1234.71 1013.13 1239.82L1007.99 1247.09L1058.39 1227.64C1086.23 1216.96 1111.57 1205.98 1115.08 1204.11C1119.46 1201.32 1120.52 1200.94 1120.23 1203.45C1119.75 1205.43 1120.13 1206.49 1121.72 1205.92C1123.31 1205.34 1124.51 1203.7 1125.18 1202.26C1125.85 1200.81 1130.23 1198.02 1134.46 1196.49C1142.4 1193.62 1143.12 1193.96 1138.07 1198.19C1132.68 1203.15 1132.25 1206.91 1137.01 1205.19C1138.6 1204.62 1140.24 1205.83 1140.81 1207.42C1141.58 1209.55 1143.56 1210.04 1145.67 1209.27C1147.79 1208.51 1151.73 1209.49 1154.09 1211.04C1158.08 1213.8 1157.6 1215.78 1153.51 1222.68C1150.44 1227.4 1145.25 1232.89 1141.74 1234.76C1135.77 1238.12 1135.63 1239.38 1139.14 1250.74C1142.42 1259.78 1142.37 1264.61 1139.77 1267.35C1136.84 1270.82 1137.03 1271.35 1144.29 1269.92C1151.56 1268.5 1152.47 1269.37 1154.83 1277.54C1156.42 1283.58 1158.63 1286.39 1160.22 1285.81C1164.98 1284.09 1161.04 1289.73 1154.74 1293.81C1151.76 1295.49 1154.4 1294.54 1160.03 1291.9C1165.65 1289.26 1172.2 1287.49 1173.97 1287.45C1176.48 1287.75 1172.63 1290.34 1165.75 1292.83C1150.6 1298.92 1145.8 1305.47 1149.79 1314.85C1152.25 1319.98 1154.6 1321.53 1161 1321.02C1165.09 1320.74 1169.22 1322.25 1169.61 1323.32C1170.57 1325.98 1174.13 1325.89 1179.23 1323.44C1182.21 1321.76 1183.22 1326.21 1180.1 1329.14C1178.89 1330.78 1172.59 1334.87 1166.97 1337.51C1161.53 1340.68 1153.46 1344.8 1149.08 1347.59C1145.04 1349.65 1139.08 1353.02 1135.57 1354.89C1132.59 1356.57 1130.52 1359.12 1130.9 1360.19C1131.29 1361.25 1132.54 1361.4 1133.93 1360.29C1136.87 1356.82 1157.55 1357.76 1158.9 1361.48C1159.47 1363.08 1158.99 1365.05 1157.41 1365.63C1155.82 1366.2 1155.15 1367.65 1155.53 1368.71C1155.92 1369.78 1159.47 1369.69 1163.71 1368.16C1168.47 1366.44 1172.75 1366.69 1176.55 1368.92C1181.07 1371.5 1180.73 1372.22 1177.03 1373.56C1172.8 1375.09 1175.54 1377.71 1179.97 1376.71C1181.55 1376.14 1183.86 1375.9 1185.45 1375.33C1187.03 1374.75 1188.67 1375.96 1189.44 1378.09C1190.21 1380.22 1191.65 1380.9 1193.24 1380.33C1196.94 1378.98 1199.11 1386.62 1196.56 1391.15C1194.69 1394.24 1195.41 1394.58 1200.31 1391.6C1204.69 1388.81 1205.94 1388.96 1205.99 1390.75C1206.04 1392.53 1198.2 1398.98 1188.25 1406.19C1178.63 1412.68 1169.73 1419.51 1168.2 1421.87C1165.26 1425.34 1141.75 1438.07 1115.54 1449.96C1107.8 1453.36 1097.6 1458.26 1093.56 1460.32C1089.53 1462.39 1074.57 1469 1061.2 1475.05C1047.11 1480.75 1033.74 1486.79 1030.23 1488.67C1021.29 1493.71 976.615 1514.09 954.254 1523.39C943.338 1527.95 920.111 1538.16 903.04 1545.54C901.453 1546.12 899.866 1546.69 898.471 1547.8L897.413 1548.18L895.297 1548.95C893.711 1549.52 892.653 1549.9 891.066 1550.48C885.247 1552.59 879.621 1555.22 873.273 1557.52C861.299 1562.46 848.267 1567.78 835.042 1572.57C807.728 1583.06 779.019 1594.66 747.472 1606.68C685.101 1631.06 614.074 1657.98 539.151 1685.71C462.641 1714.01 381.563 1744.57 359.009 1753.34C347.035 1758.27 248.115 1794.09 15.3634 1878.35C71.213 1758.28 165.417 1555.75 247.846 1378.54C330.275 1201.33 401.457 1049.24 411.406 1028.79C413.425 1024.45 423.182 1003.48 438.851 970.736C453.318 939.634 473.36 897.49 495.566 849.751C514.07 809.968 536.612 761.506 555.116 721.723C559.154 713.043 563.912 704.704 565.307 703.597C566.701 702.491 566.172 702.682 564.056 703.448C561.604 704.938 561.411 704.406 564.2 702.193C566.653 700.704 570.402 694.534 573.094 688.748C582.707 669.027 588.811 657.794 592.561 651.624C590.781 651.667 590.781 651.667 591.647 650.752C592.849 649.114 591.983 650.029 588.665 652.433C585.876 654.646 584.482 655.752 585.877 654.646C587.078 653.008 580.538 654.774 570.824 657.69C561.639 660.414 551.203 662.989 541.825 665.181C532.447 667.373 524.464 668.459 523.55 667.587C522.107 666.906 522.107 666.906 510.277 670.588C506.045 672.12 499.841 673.163 496.282 673.249C492.723 673.334 486.856 673.654 484.018 674.08C473.919 675.932 464.685 676.869 456.173 678.146C453.864 678.38 451.556 678.614 449.776 678.657C449.776 678.657 447.66 679.423 446.41 679.275L442.514 680.083C439.87 681.041 437.032 681.467 434.387 682.424C423.952 685 413.516 687.575 403.08 690.15C377.255 696.492 343.64 704.452 328.972 708.56C314.304 712.667 294.298 716.903 284.199 718.755C274.1 720.606 259.576 723.459 252.314 724.885C244.716 727.034 238.848 727.354 238.463 726.29C238.078 725.227 236.106 724.738 233.461 725.695C228.701 727.419 227.209 724.951 230.815 720.037C235.573 711.697 224.368 712.145 194.359 721.807C187.29 723.765 179.355 726.637 175.989 727.255C166.804 729.979 167.235 726.213 176.275 718.129C183.054 712.065 186.228 710.916 196.52 709.596C203.445 708.893 214.603 706.658 221.479 704.168C228.549 702.21 238.263 699.295 243.745 697.912C258.076 694.527 275.581 689.994 300.492 682.78C312.322 679.098 327.711 675.331 333.915 674.288C340.119 673.245 346.131 671.67 346.467 670.947C347.332 670.032 357.576 666.925 369.598 663.775C381.621 660.626 395.904 655.455 401.337 652.284C408.358 648.539 409.56 646.901 404.799 648.625C401.096 649.966 388.015 653.498 375.8 656.116C363.778 659.266 344.685 664.374 334.442 667.481C324.199 670.588 309.483 672.908 302.365 673.079C295.247 673.25 288.129 673.421 286.542 673.996C280.194 676.294 283.8 671.38 290.484 668.358C294.716 666.826 298.612 666.017 298.804 666.549C299.189 667.613 309.096 665.229 320.205 661.207C332.035 657.525 342.278 654.418 342.999 654.759C343.721 655.099 357.33 651.375 373.392 646.161C417.203 633.307 426.003 629.519 423.068 626.371C421.962 624.967 418.932 624.861 415.565 625.479C412.92 626.436 409.554 627.054 409.025 627.245C408.496 627.437 404.071 628.437 399.118 629.629C394.694 630.629 375.265 636.46 356.173 641.568C337.081 646.676 309.333 654.316 294.136 658.615C278.94 662.913 251.913 670.894 234.264 676.682C216.615 682.47 194.542 689.259 185.693 691.26C177.037 693.792 166.121 698.346 161.409 701.856C152.321 708.154 145.924 708.666 151.646 702.985C153.377 701.155 154.05 699.709 152.463 700.283C150.876 700.858 148.567 701.092 146.98 701.667C145.201 701.709 141.498 703.05 137.602 703.859C134.429 705.008 130.677 704.562 130.292 703.498C129.714 701.903 140.63 697.349 169.581 688.071C194.106 679.793 207.331 675.005 203.772 675.09C197.712 674.878 224.017 666.557 244.36 661.598C248.784 660.598 263.451 656.491 277.59 652.575C291.2 648.851 303.751 645.509 305.723 645.998C307.695 646.488 311.591 645.679 314.236 644.721C341.021 634.422 382.86 621.079 383.437 622.674C383.822 623.738 382.091 625.568 379.446 626.525C376.273 627.674 375.936 628.398 378.966 628.504C384.834 628.184 388.391 621.483 385.6 617.079C383.579 614.803 381.943 613.591 380.693 613.442C379.635 613.825 375.739 614.634 371.844 615.443C367.949 616.252 351.694 620.934 336.161 625.956C320.436 630.446 305.768 634.554 303.123 635.511C300.815 635.745 284.753 640.959 267.44 646.024C250.32 651.621 232.815 656.154 228.92 656.963C225.024 657.772 195.016 667.433 162.556 678.584C103.454 698.779 88.0647 702.546 85.7543 696.164C84.7916 693.505 86.3785 692.93 93.3039 692.228C98.4498 691.568 101.624 690.418 101.239 689.355C100.854 688.291 107.538 685.27 117.252 682.354L134.036 677.481L130.86 672.014C128.261 668.143 128.405 666.887 132.301 666.079C140.284 664.993 164.281 656.906 168.272 653.055C170.531 651.034 189.575 644.14 210.926 637.011C232.278 629.882 247.619 624.328 244.589 624.222C235.499 623.904 213.762 629.969 162.98 648.355C134.415 658.697 107.58 667.209 101.906 668.061C96.2306 668.912 111.908 662.635 137.828 653.25C166.922 642.717 183.464 635.525 185.002 633.163C187.214 629.355 176.778 631.93 160.235 639.123C154.08 641.953 153.359 641.612 155.955 638.868C159.753 634.485 189.376 623.76 192.455 625.653C193.369 626.525 197.601 624.993 201.447 622.397C208.612 617.397 213.278 618.716 207.363 623.865C205.969 624.971 208.614 624.013 213.519 621.034C222.463 615.992 282.767 594.159 315.276 584.795C327.106 581.113 330.809 579.773 327.057 579.327C323.498 579.412 314.65 581.413 307.244 584.094C295.606 588.307 252.035 596.864 234.096 598.547C230.537 598.632 229.672 599.547 231.308 600.759C233.472 601.78 229.625 604.376 219.382 607.483C211.447 610.356 204.715 611.59 205.051 610.867C205.387 610.144 200.242 610.804 194.423 612.91C175.716 619.082 166.482 620.019 169.751 615.828C171.818 613.275 170.568 613.126 164.942 615.764C143.11 624.872 132.289 626.383 146.33 618.894C149.311 617.213 153.495 613.894 155.225 612.064C159.553 607.49 156.715 607.916 144.212 613.044C138.922 614.959 138.393 615.15 142.048 612.023C146.231 608.704 146.038 608.172 140.122 606.705C134.206 605.238 105.303 609.687 102.177 612.623C101.841 613.346 99.34 613.049 96.454 611.688C92.3173 610.178 95.2986 608.497 119.824 600.219C135.357 595.197 149.496 591.281 151.997 591.578C153.969 592.067 157.335 591.45 159.259 590.152C161.182 588.854 159.018 587.834 154.208 587.77C142.81 587.687 142.905 584.644 154.014 580.623C165.315 577.133 168.776 573.473 161.802 572.389C158.58 571.751 160.167 571.177 166.707 569.41C192.003 563.259 270.39 538.489 263.079 538.128C255.432 538.491 177.526 561.283 145.258 572.965C121.983 581.392 99.2854 591.414 91.0629 596.797C85.8217 600.499 75.3372 601.288 74.3746 598.629C73.9895 597.565 75.7204 595.735 78.3653 594.778C86.6365 591.182 47.1532 599.461 27.0034 604.952C15.6069 611.484 4.83479 614.783 1.46838 615.4ZM99.9989 565.291C95.911 565.568 90.2361 566.42 87.2547 568.1C82.1574 570.547 82.1574 570.548 87.4959 570.419C90.5259 570.525 96.5372 568.95 100.24 567.61L107.646 564.928L99.9989 565.291ZM162.824 609.915C162.295 610.106 162.151 611.361 162.536 612.425C162.921 613.488 164.364 614.169 165.951 613.594C167.538 613.02 167.682 611.765 166.239 611.084C165.325 610.212 163.882 609.531 162.824 609.915ZM241.104 712.101C237.93 713.25 235.815 714.016 236.007 714.548C236.585 716.143 241.058 716.93 244.761 715.589C249.858 713.142 247.116 710.526 241.104 712.101ZM287.702 533.424C282.22 534.807 277.266 535.999 277.459 536.531C278.422 539.19 283.568 538.53 292.031 535.466C303.669 531.252 301.504 530.231 287.702 533.424ZM359.615 571.75C355.191 572.75 351.151 574.814 351.007 576.069C350.863 577.324 353.893 577.43 358.125 575.898C362.55 574.898 366.589 572.834 366.733 571.579C367.598 570.664 364.039 570.749 359.615 571.75ZM592.029 802.194C597.171 788.303 596.496 783.133 591.352 790.409C589.477 793.494 588.132 796.387 589.046 797.259C589.96 798.132 588.663 802.812 586.308 807.875C585.298 810.045 584.818 812.023 584.145 813.47C583.665 815.448 582.992 816.895 582.655 817.618C582.175 819.597 582.367 820.129 583.762 819.022C584.098 818.299 584.964 817.384 586.166 815.746C586.502 815.023 587.367 814.108 587.511 812.853C587.848 812.129 588.713 811.215 588.857 809.959C589.866 807.79 591.212 804.896 592.029 802.194ZM325.404 1316.78C398.268 1161.07 464.211 1019.3 511.986 916.588C529.818 878.252 544.285 847.15 554.378 825.45C559.425 814.6 562.933 806.112 565.817 800.857C567.163 797.964 567.499 797.241 567.307 796.709C566.778 796.9 566.585 796.369 566.249 797.092C565.383 798.007 565.383 798.007 561.683 805.963C554.425 820.621 540.967 849.554 513.522 907.611C500.065 936.544 483.53 970.199 468.727 1002.03C448.684 1044.17 430.324 1082.7 417.49 1108.4C387.305 1170.45 323.189 1307.35 274.741 1411.51C191.976 1589.45 146.892 1686.37 136.606 1707.54C134.251 1712.6 122.668 1738.45 110.556 1764.49C107.721 1771.53 102.338 1783.1 85.5155 1819.27C106.675 1811.61 177.029 1786.14 244.018 1761.28C335.002 1728.34 442.193 1688.93 481.867 1674.57C501.968 1667.29 519.954 1660.78 533.178 1655.99C546.595 1651.74 554.53 1648.86 554.722 1649.39C555.108 1650.46 577.71 1643.48 605.217 1633.52C632.724 1623.56 654.027 1614.64 653.113 1613.77C652.921 1613.24 644.264 1615.77 631.905 1619.65C619.017 1623.71 601.897 1629.31 583.19 1635.48C545.776 1647.82 507.834 1660.36 499.177 1662.89C489.992 1665.61 446.423 1680.78 401.46 1697.06C355.967 1713.53 325.43 1723.39 332.451 1719.64C343.511 1713.83 342.982 1714.02 328.507 1718.66C317.927 1722.49 313.359 1724.75 315.331 1725.24C317.303 1725.73 311.869 1728.9 298.501 1734.94C293.403 1737.39 221.462 1763.43 96.6222 1808.63C150.453 1692.9 233.699 1512.99 325.404 1316.78ZM574.678 838.552C576.024 835.659 576.311 833.148 574.868 832.468C573.425 831.787 572.416 833.957 571.792 837.191C571.167 840.424 570.88 842.935 571.601 843.275C571.794 843.807 573.332 841.445 574.678 838.552ZM554.824 867.996C556.698 864.911 558.717 860.571 559.534 857.869C560.351 855.168 558.283 857.721 556.121 863.316C553.766 868.379 552.949 871.081 554.824 867.996ZM550.888 893.481C553.964 888.758 556.8 881.717 556.366 878.866C556.364 872.25 555.162 873.889 549.443 886.185C548.097 889.078 546.029 891.631 545.115 890.759C544.394 890.419 538.77 899.673 533.579 911.778C528.388 923.883 513.536 953.922 500.847 978.366C478.208 1023.25 474.748 1033.53 488.21 1017.83C492.008 1013.45 504.025 990.449 519.838 956.453C533.632 926.797 547.811 898.204 550.888 893.481ZM473.881 1027.83C476.572 1022.04 477.677 1016.83 476.234 1016.15C474.791 1015.47 473.589 1017.11 473.301 1019.62C473.013 1022.13 471.811 1023.77 470.561 1023.62C469.31 1023.47 465.61 1031.43 461.957 1041.17C461.284 1042.62 460.948 1043.34 460.468 1045.32C459.458 1047.49 458.978 1049.47 457.776 1051.1C456.286 1055.25 454.075 1059.06 452.586 1063.21C449.414 1070.97 445.857 1077.67 443.838 1082.01C439.272 1090.89 410.481 1151.84 379.529 1218.38C359.822 1259.8 345.692 1290.18 336.079 1309.9C326.466 1329.62 321.034 1339.41 319.976 1339.79C317.86 1340.56 315.313 1345.09 313.342 1351.22C311.901 1357.15 308.537 1364.39 307.384 1367.81C302.337 1378.66 276.143 1436.87 260.186 1472.12C251.631 1491.46 243.701 1507.56 242.114 1508.14C240.719 1509.24 238.172 1513.77 236.682 1517.92C229.906 1537.22 218.66 1562.34 216.736 1563.64C216.207 1563.83 210.824 1575.4 202.221 1592.96C193.617 1610.51 182.514 1634.38 170.595 1660.95C146.371 1713.03 121.474 1766.55 114.168 1779.42C104.506 1797.36 103.016 1801.51 108.545 1795.29C116.334 1787.06 115.998 1787.78 128.975 1760.83C134.887 1749.06 143.732 1733.83 148.876 1726.56C154.693 1717.83 162.287 1702.45 172.476 1677.71C184.683 1648.63 313.156 1370.53 330.556 1335.96C333.44 1330.71 341.466 1311.56 348.29 1294.05C357.806 1270.76 361.843 1262.08 363.479 1263.29C364.585 1264.69 362.135 1272.8 357.905 1280.95C353.195 1291.07 351.898 1295.75 354.879 1294.07C357.86 1292.39 365.647 1277.54 382.133 1242.1C399.435 1203.96 421.112 1156.41 438.029 1117.2C446.392 1097.33 454.274 1079.44 459.608 1066.08C462.636 1059.57 464.799 1053.97 466.288 1049.83C466.625 1049.1 467.298 1047.66 467.105 1047.12C467.442 1046.4 467.249 1045.87 467.778 1045.68C468.115 1044.95 468.451 1044.23 468.258 1043.7C468.546 1041.19 470.66 1033.81 473.881 1027.83ZM166.395 1768.33C153.363 1773.65 135.09 1782.68 127.011 1786.8C112.105 1795.21 111.575 1795.4 116.914 1795.27C119.751 1794.85 131.581 1791.16 143.556 1786.23C155.53 1781.29 162.599 1779.33 160.339 1781.35C158.079 1783.37 161.446 1782.76 168.466 1779.01C183.037 1771.33 236.127 1752.71 238.821 1753.54C240.071 1753.69 242.716 1752.73 246.034 1750.33C251.275 1746.63 235.357 1750.58 203.955 1761.35C193.375 1765.18 186.306 1767.14 187.7 1766.03C189.095 1764.93 190.633 1762.57 190.584 1760.78C190.199 1759.72 183.13 1761.67 166.395 1768.33ZM270.848 1739.54C268.01 1739.97 262.191 1742.07 258.152 1744.14C254.642 1746.01 256.95 1745.77 263.827 1743.28C270.704 1740.79 273.685 1739.11 270.848 1739.54ZM642.786 1339.01C636.775 1340.59 630.427 1342.89 628.167 1344.91C624.513 1348.03 623.984 1348.23 625.571 1347.65C626.1 1347.46 628.408 1347.23 630.38 1347.71C632.16 1347.67 638.508 1345.37 643.941 1342.2L653.943 1336.78L642.786 1339.01ZM673.177 1323.8C672.456 1323.46 670.34 1324.22 668.416 1325.52C666.493 1326.82 667.215 1327.16 669.86 1326.2C672.504 1325.25 673.899 1324.14 673.177 1323.8ZM1009.43 1254.39C980.339 1264.92 939.705 1283.24 955.959 1278.56C1006.65 1263.22 1102.29 1224.98 1105.85 1218.28C1106.52 1216.83 1094.89 1221.04 1079.93 1227.66C1064.98 1234.28 1049.83 1240.37 1046.99 1240.79C1044.35 1241.75 1026.89 1248.07 1009.43 1254.39ZM1048.67 1394.17C1026.22 1406.51 1063.1 1394.36 1111.67 1373.17C1128.74 1365.78 1131.53 1363.57 1124.8 1364.8C1119.65 1365.46 1107.15 1370.59 1096.95 1375.49C1086.23 1380.57 1072.67 1386.08 1066.66 1387.66C1060.45 1388.7 1052.52 1391.57 1048.67 1394.17ZM1060.3 1193.27C1053.42 1195.76 1048.52 1198.73 1048.9 1199.8C1049.29 1200.86 1054.43 1200.2 1060.25 1198.09C1066.07 1195.99 1070.98 1193.01 1071.65 1191.56C1072.13 1189.58 1067.7 1190.58 1060.3 1193.27ZM1125.82 1251.95C1124.76 1252.33 1124.28 1254.31 1124.86 1255.91C1125.63 1258.03 1127.07 1258.72 1128.13 1258.33C1129.19 1257.95 1129.67 1255.97 1129.09 1254.38C1128.32 1252.25 1126.88 1251.57 1125.82 1251.95Z" fill="#26343A"/>
</svg>
