<svg width="592" height="426" viewBox="0 0 592 426" fill="none" xmlns="http://www.w3.org/2000/svg">
<path d="M133.214 47.1336C132.135 47.1336 133.034 46.7742 135.011 46.4147C136.989 46.0553 145.438 45.8755 153.708 46.0553C161.978 46.235 166.472 46.0553 163.596 45.8755C158.202 45.5161 157.124 44.7972 160 43.3593C161.079 42.8202 159.461 42.6404 153.348 42.4607C146.157 42.281 136.989 41.3823 141.124 41.0229C142.023 41.0229 142.742 40.6634 142.921 40.1242C143.101 39.585 148.494 39.4054 159.281 39.4054C169.888 39.4054 175.461 39.2256 175.461 38.6864C175.461 38.327 174.921 37.9675 174.023 37.9675C171.506 37.9675 172.764 35.8108 175.641 35.0919C178.157 34.5527 178.337 34.3729 176.36 34.3729C175.101 34.3729 172.225 34.5527 170.067 34.9121C167.191 35.2716 165.753 35.2716 165.393 34.7324C164.494 33.4743 165.393 32.9351 168.449 32.3959C170.067 32.0365 171.865 31.3176 172.584 30.7784C174.382 29.3406 172.225 28.8014 165.034 29.3406C158.023 29.7 152.809 28.9811 158.202 28.4419C162.697 27.9027 163.236 25.3866 158.742 25.5663C154.966 25.746 153.528 25.0271 153.528 23.2298C153.528 22.1515 154.427 21.6123 157.124 21.2528C159.461 20.8934 160.719 20.3542 160.719 19.6353C160.719 19.0961 161.079 18.5569 161.438 18.5569C161.798 18.5569 166.832 18.1974 172.764 17.4785C178.517 16.9393 190.742 16.4002 199.73 16.4002C215.73 16.4002 216.09 16.2204 216.09 14.7826C216.09 13.7043 216.989 12.8056 218.787 12.2664L221.483 11.188L218.247 11.188C216.449 11.188 213.933 11.0083 212.494 11.0083C209.798 11.0083 209.079 9.39077 211.416 8.67187C212.135 8.49215 212.674 7.77322 212.315 7.23404C211.955 6.51513 213.034 6.33542 216.809 6.51513C219.685 6.69488 221.843 6.51513 221.843 5.97595C221.843 4.89758 224.36 4.3584 231.371 3.99893C234.427 3.81921 238.202 3.6395 244.135 3.28003C247.011 3.10031 250.607 2.74088 254.742 2.56113C255.82 2.56113 256.899 2.38141 257.978 2.38141C258.517 2.38141 259.056 2.38138 259.775 2.20166C260.494 2.20166 260.674 2.20169 262.292 2.02194C267.146 1.84223 272.539 1.66248 278.292 1.48276C333.303 -0.494224 401.978 -0.494218 457.888 1.48278C468.315 1.84224 487.73 2.38143 501.034 2.56115C523.685 2.92062 530.157 3.10034 557.483 3.99896C562.157 4.17871 569.169 4.35843 592 4.53815C587.326 8.67191 566.292 29.3406 538.427 56.4795C519.551 74.9915 501.214 92.6048 497.618 95.8399L490.966 101.591L495.281 97.098C499.596 92.6048 499.775 90.9873 495.461 95.121C494.202 96.1994 489.888 100.333 485.933 103.928C462.382 125.675 443.685 143.827 431.64 156.768C426.966 161.8 418.697 170.427 413.483 176.178C398.382 192.174 384.539 206.552 373.034 218.594C367.101 224.705 361.888 230.276 357.214 235.129C354.517 238.005 352.18 240.521 350.202 242.498C336 257.595 329.348 264.604 320.539 273.591C316.045 278.084 311.191 282.937 304.539 289.766C302.202 292.103 299.146 295.158 295.191 299.112C294.292 300.011 293.573 300.909 293.753 300.909C293.933 300.909 293.933 301.269 293.933 301.449C293.753 301.628 294.112 301.988 294.652 302.167C295.371 302.347 295.191 302.347 294.112 302.527C293.214 302.707 292.494 302.886 292.494 302.886C292.315 303.066 290.876 303.246 290.697 303.066C290.337 302.707 289.618 302.347 288.899 302.167C288.36 302.167 288.18 301.628 288.36 301.089C288.539 300.55 288.719 299.831 288.719 299.472C288.719 299.112 289.079 298.932 289.618 299.112C290.157 299.292 290.697 299.292 291.056 299.292C291.416 299.292 291.236 299.112 290.517 298.932C289.618 298.753 289.618 298.393 290.697 297.135C291.955 295.697 291.955 295.338 290.876 294.799C290.157 294.259 284.225 300.37 283.146 302.886C282.607 303.965 282.067 304.863 281.528 304.863C280.989 304.863 280.629 304.863 280.629 304.684L280.629 304.324L280.09 304.863C279.73 305.043 278.831 305.403 278.112 305.582C277.393 305.762 276.854 305.762 276.854 305.582C276.854 305.582 276.135 305.403 275.236 305.582C274.337 305.582 273.798 305.403 273.798 305.043C273.978 304.684 273.798 304.504 273.438 304.684C272.539 304.863 272.539 303.426 273.618 301.808C274.517 300.37 274.157 300.011 272.36 300.37C270.742 300.73 269.124 300.73 269.663 300.19C269.843 300.011 270.562 299.831 271.101 299.831C272.539 299.831 272.719 299.472 271.461 299.112C270.742 298.932 270.562 298.393 271.101 297.854C271.461 297.495 271.461 297.135 270.921 297.135C270.202 297.135 268.584 298.573 269.303 298.753C269.303 298.753 269.124 299.292 268.584 300.011C268.225 300.73 267.506 301.089 266.966 301.089C266.427 301.089 265.888 301.269 265.708 301.269C265.528 301.449 266.067 301.449 266.607 301.449C267.326 301.449 267.685 301.449 267.506 301.628C267.326 301.808 266.787 301.988 266.247 301.808C265.708 301.808 264.989 301.988 264.809 302.347C264.27 302.886 264.449 302.886 265.708 302.527C266.787 302.167 266.966 302.347 266.247 302.886C265.708 303.426 265.169 303.605 265.169 303.426C264.989 303.246 264.449 303.066 263.73 303.066C262.472 303.066 261.034 303.426 257.438 306.661C253.663 309.716 247.73 315.467 236.584 326.071C234.787 327.689 233.169 329.306 231.73 330.564C243.056 330.924 248.809 330.924 251.865 330.924C254.921 330.924 255.281 330.564 256 330.205C256.719 329.666 257.258 329.486 258.517 329.486C259.775 329.486 261.753 329.666 265.528 330.205C267.326 330.385 271.64 330.744 275.056 331.104C280.809 331.463 281.348 331.463 281.528 330.205C281.708 328.767 279.371 327.869 275.236 327.689C272.719 327.689 272.36 327.329 273.258 326.071C273.978 324.993 273.978 324.813 272.899 325.352C270.921 326.61 267.506 326.251 268.225 324.813C268.405 324.454 267.865 324.454 266.966 324.813C266.067 325.173 265.708 324.993 265.888 324.813C266.247 324.454 264.27 324.094 260.854 323.735C257.618 323.555 252.944 323.375 247.73 323.555C249.169 321.938 250.607 320.5 252.045 319.062C255.461 315.108 256.36 314.389 259.056 313.311C261.393 312.412 262.292 311.693 263.191 310.794C263.91 309.896 265.169 309.177 266.247 308.817C267.685 308.458 267.685 308.817 266.427 310.076C265.528 310.974 264.629 312.053 264.449 312.412C264.27 312.951 262.112 315.288 258.337 319.062C264.809 318.882 274.876 319.062 277.034 319.421C279.191 319.781 281.708 319.961 282.247 319.961C282.787 319.961 283.146 320.14 282.787 320.679C282.427 321.219 282.427 321.219 283.326 320.679C284.045 320.14 284.764 319.961 285.303 320.32C286.202 320.859 288 321.219 291.955 321.578C293.933 321.758 296.449 321.938 299.506 322.117C299.865 322.117 300.225 322.117 300.764 322.117L301.483 322.117C302.202 322.117 302.921 322.117 303.64 322.117C306.697 322.117 309.753 322.117 312.989 322.297C319.64 322.297 326.652 322.477 334.562 322.477C361.528 322.836 373.034 322.656 382.023 321.938C388.494 321.398 394.247 321.219 394.787 321.578C395.326 321.938 398.921 321.938 402.697 321.758C408.629 321.398 410.247 321.578 413.483 323.016C415.64 323.915 417.079 324.274 416.719 323.915C416 323.016 416.36 322.836 418.337 323.555C419.056 323.735 419.775 324.454 419.775 325.173C419.775 326.071 419.236 326.251 417.438 325.892C415.82 325.532 415.281 325.712 415.64 326.251C416.36 327.15 411.685 328.947 406.292 329.666C403.236 330.025 402.517 330.385 403.236 331.104C404.315 332.182 401.978 332.901 397.843 333.081C396.584 333.081 394.427 333.8 392.989 334.698C390.652 336.316 389.034 336.855 386.157 337.035C385.618 337.035 385.258 337.394 385.438 337.754C385.618 338.113 385.079 338.652 384.18 339.012C383.281 339.371 382.742 340.09 382.921 340.45C383.101 340.809 380.764 341.168 377.528 341.348C373.214 341.528 371.056 342.067 369.258 343.145L366.921 344.763L384.18 344.404C393.708 344.224 402.517 343.685 403.775 343.505C405.393 343.145 405.753 343.145 405.393 343.864C405.034 344.404 405.034 344.763 405.573 344.763C406.112 344.763 406.652 344.404 407.011 344.044C407.371 343.685 408.989 343.325 410.427 343.325C413.124 343.325 413.303 343.505 411.326 344.224C409.169 345.122 408.629 346.201 410.247 346.201C410.787 346.201 411.146 346.74 411.146 347.279C411.146 347.998 411.685 348.358 412.405 348.358C413.124 348.358 414.202 349.076 414.742 349.795C415.64 351.053 415.281 351.593 413.303 353.21C411.865 354.289 409.708 355.367 408.449 355.547C406.292 355.906 406.112 356.266 405.933 360.04C405.933 363.095 405.393 364.533 404.315 365.072C403.056 365.791 403.056 365.971 405.393 366.33C407.73 366.69 407.91 367.049 407.73 369.745C407.551 371.722 407.91 372.801 408.449 372.801C410.067 372.801 408.27 374.059 405.933 374.598C404.854 374.778 405.753 374.778 407.73 374.598C409.708 374.418 411.865 374.598 412.405 374.778C413.124 375.137 411.685 375.496 409.348 375.496C404.135 375.676 401.978 377.114 402.157 380.349C402.337 382.146 402.876 382.865 404.854 383.404C406.112 383.764 407.191 384.663 407.191 385.022C407.191 385.921 408.27 386.28 410.067 386.1C411.146 385.921 410.966 387.358 409.708 387.898C409.169 388.257 406.831 388.796 404.854 388.976C402.876 389.336 400 389.695 398.382 390.054C396.944 390.234 394.787 390.594 393.528 390.773C392.449 390.953 391.551 391.492 391.551 391.852C391.551 392.211 391.91 392.391 392.449 392.211C393.708 391.492 399.82 394.008 399.82 395.267C399.82 395.806 399.461 396.345 398.921 396.345C398.382 396.345 398.022 396.704 398.022 397.064C398.022 397.423 399.101 397.783 400.539 397.783C402.157 397.783 403.416 398.322 404.315 399.4C405.393 400.658 405.213 400.838 403.955 400.838C402.517 400.838 403.056 401.916 404.494 402.096C405.034 402.096 405.753 402.276 406.292 402.276C406.831 402.276 407.191 402.815 407.191 403.534C407.191 404.253 407.551 404.612 408.09 404.612C409.348 404.612 409.169 407.129 407.91 408.207C407.011 408.926 407.191 409.106 408.989 408.746C410.607 408.387 410.966 408.566 410.787 409.106C410.607 409.645 407.551 410.723 403.775 411.801C400.18 412.7 396.764 413.778 396.045 414.318C394.787 415.037 386.337 416.295 377.169 417.014C374.472 417.193 370.876 417.553 369.438 417.732C368 417.912 362.787 418.272 358.112 418.631C353.258 418.811 348.584 419.17 347.326 419.35C344.09 419.889 328.449 421.147 320.719 421.507C316.944 421.687 308.854 422.226 302.921 422.585C302.382 422.585 301.843 422.585 301.303 422.765L300.944 422.765L300.225 422.765C299.685 422.765 299.326 422.765 298.787 422.765C296.809 422.765 294.831 422.945 292.674 422.945C288.539 423.124 284.045 423.304 279.551 423.304C270.202 423.484 260.315 423.843 249.528 424.023C228.135 424.562 203.865 424.922 178.337 425.101C152.27 425.281 124.584 425.641 116.854 425.82C112.719 426 79.1011 426 0 426C29.8427 396.165 80.1798 345.841 124.225 301.808C168.27 257.775 206.202 220.032 211.416 214.999C212.494 213.921 217.708 208.709 225.978 200.621C233.708 192.893 244.315 182.469 256.18 170.607C266.067 160.722 278.112 148.68 288 138.795C290.157 136.638 292.494 134.661 293.034 134.481C293.573 134.302 293.393 134.302 292.674 134.302C291.775 134.481 291.775 134.302 292.854 133.942C293.753 133.762 295.551 132.325 296.989 130.887C302.023 126.034 305.079 123.338 306.876 121.9C306.337 121.721 306.337 121.721 306.697 121.541C307.236 121.182 306.876 121.361 305.618 121.721C304.539 122.08 304 122.26 304.539 122.08C305.079 121.721 302.921 121.541 299.685 121.361C296.629 121.182 293.214 120.822 290.157 120.463C287.101 120.103 284.584 119.564 284.405 119.205C284.045 118.845 284.045 118.845 280.09 118.665C278.652 118.665 276.674 118.306 275.596 117.946C274.517 117.587 272.719 117.048 271.82 116.868C268.584 116.329 265.708 115.61 263.011 115.071C262.292 114.891 261.573 114.711 261.034 114.532C261.034 114.532 260.315 114.532 259.955 114.352L258.697 114.172C257.798 114.172 256.899 113.992 256 113.992C252.584 113.633 249.169 113.273 245.753 112.914C237.303 112.015 226.337 110.757 221.483 110.398C216.629 110.038 210.157 109.14 206.921 108.601C203.685 108.061 199.011 107.342 196.674 106.983C194.157 106.803 192.36 106.264 192.36 105.905C192.36 105.545 191.82 105.186 190.921 105.186C189.303 105.186 189.124 104.287 190.742 103.209C193.079 101.232 189.663 100.153 179.596 99.7939C177.258 99.6142 174.562 99.6142 173.483 99.4344C170.427 99.2547 170.966 98.1764 174.562 96.7385C177.258 95.6602 178.337 95.6602 181.573 96.3791C183.73 96.9183 187.326 97.4574 189.663 97.4574C192 97.6371 195.236 97.8169 197.034 97.9966C201.708 98.5358 207.461 99.075 215.73 99.6142C219.685 99.7939 224.719 100.333 226.697 100.693C228.674 101.052 230.652 101.232 230.832 101.052C231.191 100.872 234.607 101.052 238.562 101.411C242.517 101.771 247.371 101.771 249.348 101.411C251.865 101.052 252.405 100.693 250.787 100.693C249.528 100.693 245.214 100.333 241.258 99.7939C237.303 99.4344 231.011 98.8953 227.596 98.7155C224.18 98.5358 219.506 97.6372 217.348 96.9183C215.191 96.1993 213.034 95.4804 212.494 95.4804C210.337 95.4804 211.955 94.4021 214.292 94.2223C215.73 94.2223 216.989 94.4021 216.989 94.5818C216.989 94.9413 220.225 95.3007 224 95.3007C227.955 95.4804 231.371 95.6602 231.551 95.8399C231.73 96.0196 236.225 96.3791 241.618 96.5588C256.18 97.4574 259.236 97.2777 258.697 96.0196C258.517 95.4804 257.618 95.121 256.539 94.9413C255.641 94.9413 254.562 94.7615 254.382 94.7615C254.202 94.7615 252.764 94.5818 251.146 94.4021C249.708 94.2223 243.236 93.8629 236.944 93.3237C230.652 92.7845 221.483 92.0656 216.449 91.7061C211.416 91.3467 202.427 90.8075 196.494 90.6278C190.562 90.4481 183.191 90.0886 180.315 89.7292C177.438 89.5494 173.663 89.7291 171.865 90.2683C168.449 91.167 166.472 90.6278 168.809 89.5494C169.528 89.19 169.888 88.8305 169.348 88.8305C168.809 88.8305 168.09 88.6508 167.551 88.6508C167.011 88.471 165.753 88.471 164.494 88.2913C163.416 88.2913 162.337 87.7521 162.337 87.3927C162.337 86.8535 166.112 86.6738 175.82 87.0332C184.09 87.2129 188.584 87.2129 187.506 86.8535C185.708 86.1346 194.517 86.494 201.169 87.2129C202.607 87.3927 207.461 87.7521 212.135 88.1116C216.629 88.471 220.764 88.8305 221.303 89.19C221.843 89.5494 223.101 89.7292 224 89.7292C233.169 89.5494 247.191 90.0886 247.191 90.6278C247.191 90.9872 246.472 91.3467 245.573 91.3467C244.494 91.3467 244.315 91.5264 245.214 91.8859C247.011 92.4251 248.809 90.8075 248.449 89.19C248.09 88.2913 247.73 87.7521 247.371 87.5724C247.011 87.5724 245.753 87.3927 244.494 87.213C243.236 87.0332 237.843 86.6738 232.629 86.494C227.416 86.1346 222.562 85.7751 221.663 85.7751C220.944 85.5954 215.551 85.4157 209.798 85.0562C204.045 84.8765 198.292 84.3373 197.034 84.1576C195.775 83.9778 185.708 83.6184 174.742 83.4387C154.787 83.0792 149.753 82.54 149.753 80.3833C149.753 79.4846 150.292 79.4846 152.449 80.0238C154.067 80.3833 155.146 80.3833 155.146 80.0238C155.146 79.6644 157.483 79.4846 160.719 79.6644L166.292 80.0238L165.933 78.0468C165.573 76.609 165.753 76.2495 167.011 76.4293C169.528 76.9684 177.618 77.1482 179.236 76.4293C180.135 76.0698 186.607 76.0698 193.798 76.2496C200.989 76.4293 206.202 76.4293 205.303 76.0698C202.607 74.9915 195.416 74.4523 178.157 74.4523C168.449 74.4523 159.461 74.0928 157.663 73.7334C155.865 73.3739 161.258 73.1941 170.067 73.1941C179.955 73.1941 185.708 72.8347 186.427 72.2955C187.506 71.3969 184.09 71.0374 178.337 71.3969C176.18 71.5766 176 71.3969 177.079 70.8577C178.697 69.9591 188.764 69.9591 189.483 70.8577C189.663 71.2172 191.101 71.2172 192.539 70.8577C195.236 70.1388 196.494 71.0374 194.157 71.9361C193.618 72.1158 194.517 72.1158 196.315 71.7564C199.551 71.2172 220.045 71.2172 230.832 71.9361C234.787 72.1158 236.045 72.1158 234.966 71.5766C233.888 71.2172 231.011 70.8577 228.494 70.8577C224.539 70.8577 210.517 68.701 204.944 67.2632C203.865 66.9037 203.506 67.0834 203.865 67.6226C204.405 68.1618 202.966 68.5212 199.551 68.3415C196.854 68.3415 194.697 67.9821 194.876 67.8023C195.056 67.6226 193.438 67.2632 191.461 67.2632C185.169 67.0834 182.292 66.3645 183.73 65.4659C184.629 64.9267 184.27 64.747 182.292 64.9267C174.742 65.2862 171.326 64.5672 176.36 63.8483C177.438 63.6686 179.056 63.1294 179.775 62.77C181.573 61.8713 180.674 61.6916 176.36 61.8713C174.562 61.8713 174.382 61.8713 175.82 61.3321C177.438 60.793 177.438 60.6132 175.82 59.5348C174.202 58.4565 165.034 56.6592 163.775 57.1984C163.596 57.3781 162.876 57.0187 162.157 56.2997C161.079 55.4011 162.157 55.2214 170.427 55.4011C175.641 55.5808 180.315 55.9403 181.034 56.2997C181.573 56.6592 182.652 56.8389 183.371 56.6592C184.09 56.4795 183.551 55.9403 182.112 55.4011C178.697 54.143 179.056 53.2444 182.832 53.2444C186.607 53.4241 188.045 52.7052 186.067 51.6268C185.169 51.0876 185.708 51.0876 187.865 51.2674C196.135 52.166 222.382 53.2444 220.225 52.3458C217.888 51.6268 192 50.0093 181.034 50.0093C173.124 50.0093 165.214 50.5485 162.157 51.2674C160.18 51.8065 156.944 50.9079 156.944 50.0093C156.944 49.6498 157.663 49.2904 158.562 49.2904C161.438 49.1106 148.674 47.3133 142.023 46.7742C137.888 47.4931 134.292 47.3133 133.214 47.1336ZM168.27 42.8202C167.011 42.4607 165.214 42.1013 164.135 42.281C162.337 42.4607 162.337 42.4607 163.955 42.9999C164.854 43.3594 166.832 43.5391 168.09 43.5391L170.607 43.5391L168.27 42.8202ZM182.292 62.9497C182.112 62.9497 181.933 63.3091 181.933 63.6686C181.933 64.0281 182.292 64.3875 182.832 64.3875C183.371 64.3875 183.551 64.0281 183.191 63.6686C183.011 63.3091 182.652 62.9497 182.292 62.9497ZM194.697 101.951C193.618 101.951 192.899 101.951 192.899 102.13C192.899 102.67 194.157 103.388 195.416 103.388C197.214 103.209 196.674 102.13 194.697 101.951ZM228.135 53.6039C226.337 53.4241 224.719 53.2444 224.719 53.4241C224.719 54.3228 226.337 54.6822 229.214 54.6822C233.169 54.6822 232.629 54.143 228.135 53.6039ZM245.573 72.8347C244.135 72.655 242.697 72.8347 242.517 73.1942C242.337 73.5536 243.236 73.9131 244.674 73.9131C246.112 74.0928 247.551 73.9131 247.73 73.5537C248.09 73.3739 247.011 73.0144 245.573 72.8347ZM290.337 166.832C293.393 163.238 293.753 161.62 291.416 163.238C290.517 163.957 289.798 164.676 289.978 165.035C290.157 165.395 289.258 166.653 288 167.911C287.461 168.45 287.101 168.989 286.742 169.349C286.382 169.888 286.023 170.247 285.843 170.427C285.483 170.966 285.483 171.146 286.023 170.966C286.202 170.786 286.562 170.607 287.101 170.247C287.281 170.067 287.64 169.888 287.82 169.528C288 169.349 288.36 169.169 288.539 168.809C289.079 168.27 289.798 167.551 290.337 166.832ZM154.247 291.743C193.079 253.102 228.315 217.875 253.843 192.354C263.371 182.828 271.101 175.1 276.494 169.708C279.191 167.012 281.169 164.855 282.607 163.597C283.326 162.878 283.506 162.699 283.506 162.519C283.326 162.519 283.326 162.339 283.146 162.519C282.787 162.699 282.787 162.699 280.809 164.676C277.034 168.27 269.843 175.459 255.281 189.838C248.09 197.027 239.461 205.294 231.551 213.202C220.944 223.626 211.236 233.152 204.584 239.442C188.764 254.719 154.607 288.688 128.719 314.569C84.4944 358.782 60.4045 382.865 55.0112 388.077C53.7528 389.335 47.4607 395.806 40.9888 402.276C39.3708 404.073 36.4944 406.949 27.5056 415.935C34.6967 415.935 58.6068 415.935 81.4382 415.755C112.36 415.755 148.854 415.576 162.337 415.576C169.169 415.576 175.281 415.576 179.775 415.576C184.27 415.755 186.966 415.755 186.966 415.935C186.966 416.295 194.517 416.654 203.865 416.654C213.214 416.654 220.584 416.295 220.405 415.935C220.405 415.755 217.528 415.576 213.393 415.396C209.079 415.216 203.326 415.037 197.034 414.857C184.449 414.497 171.685 414.138 168.809 413.958C165.753 413.778 151.011 413.599 135.73 413.599C120.27 413.599 110.022 413.239 112.539 412.88C116.494 412.341 116.315 412.341 111.461 412.161C107.865 412.161 106.247 412.341 106.787 412.7C107.326 413.06 105.348 413.419 100.674 413.778C98.8764 413.958 74.427 413.958 32 413.958C60.764 385.202 105.348 340.449 154.247 291.743ZM281.169 175.819C281.888 175.1 282.247 174.381 281.888 174.022C281.528 173.662 280.989 174.201 280.449 175.1C279.91 175.999 279.551 176.717 279.73 176.897C279.73 177.077 280.449 176.538 281.169 175.819ZM272 182.469C272.899 181.75 273.978 180.671 274.517 179.953C275.056 179.234 274.157 179.773 272.899 181.211C271.64 182.469 271.101 183.188 272 182.469ZM268.045 189.658C269.483 188.579 271.101 186.782 271.281 185.884C272 183.907 271.461 184.266 268.405 187.321C267.685 188.04 266.787 188.579 266.607 188.22C266.427 188.04 263.73 190.197 260.854 193.252C257.978 196.308 250.247 203.677 243.775 209.608C232.09 220.571 229.933 223.267 235.685 220.032C237.303 219.133 243.416 213.562 251.865 205.114C259.236 197.746 266.607 190.736 268.045 189.658ZM230.292 221.47C231.73 220.032 232.629 218.594 232.27 218.235C231.91 217.875 231.371 218.235 231.011 218.953C230.652 219.672 230.112 220.032 229.753 219.852C229.393 219.672 227.416 221.649 225.258 224.166C224.899 224.525 224.719 224.705 224.36 225.244C223.82 225.783 223.461 226.322 222.921 226.682C222.023 227.76 220.944 228.659 220.045 229.737C218.247 231.714 216.449 233.332 215.371 234.41C213.034 236.567 197.753 251.664 181.214 268.199C170.787 278.443 163.236 285.992 158.202 290.845C153.169 295.697 150.472 298.034 150.112 298.034C149.393 298.034 148.135 299.112 146.876 300.73C145.798 302.347 144 304.144 143.281 305.043C140.584 307.739 126.382 322.297 117.753 331.104C113.079 335.956 108.944 339.91 108.405 339.91C107.865 340.09 106.607 341.168 105.708 342.247C101.573 347.279 95.4607 353.57 94.7416 353.749C94.5618 353.749 91.6854 356.625 87.191 360.938C82.6966 365.252 76.764 371.183 70.2921 377.833C57.3483 390.773 44.0449 404.073 40.4494 407.129C35.5955 411.442 34.6967 412.52 37.0337 411.262C40.2697 409.645 40.0899 409.824 46.9213 403.175C49.9775 400.299 54.2921 396.704 56.6292 395.087C59.3258 393.11 63.2809 389.335 69.0337 383.045C75.8652 375.676 144.719 306.481 153.708 298.034C155.146 296.776 159.64 291.923 163.596 287.43C168.989 281.499 171.146 279.342 171.506 279.881C171.685 280.42 170.067 282.577 167.91 284.554C165.393 287.07 164.494 288.328 165.573 288.149C166.652 287.969 170.607 284.374 179.416 275.568C188.764 266.042 200.449 254.18 209.798 244.295C214.472 239.263 218.787 234.77 221.843 231.355C223.461 229.737 224.719 228.299 225.618 227.221C225.798 227.041 226.157 226.682 226.157 226.502C226.337 226.322 226.337 226.143 226.517 226.143C226.697 225.963 226.876 225.783 226.876 225.603C227.236 224.884 228.674 222.907 230.292 221.47ZM57.3483 409.465C52.8539 409.645 46.382 410.364 43.5056 410.723C38.1124 411.622 37.9326 411.622 39.5505 412.161C40.4494 412.341 44.4045 412.52 48.5393 412.341C52.6741 412.161 55.0112 412.341 54.1124 412.7C53.2135 413.06 54.2921 413.239 56.809 412.88C62.0225 412.161 80 412.341 80.7191 412.88C81.0786 413.06 81.9775 413.06 83.236 412.7C85.2135 412.161 80 411.622 69.3933 411.442C65.7977 411.442 63.4607 411.262 64 411.083C64.5393 410.903 65.2584 410.364 65.4382 409.824C65.4382 409.465 63.1011 409.285 57.3483 409.465ZM91.8652 412.161C90.9663 411.981 88.9888 411.981 87.5506 412.161C86.2921 412.341 87.0112 412.52 89.3483 412.52C91.6854 412.52 92.764 412.341 91.8652 412.161ZM247.191 332.721C245.214 332.541 243.056 332.541 242.157 332.901C240.719 333.44 240.539 333.44 241.079 333.44C241.258 333.44 241.978 333.62 242.517 333.979C243.056 334.159 245.214 334.159 247.191 333.8L250.787 333.26L247.191 332.721ZM257.978 331.463C257.798 331.283 257.079 331.283 256.36 331.463C255.64 331.643 255.82 331.823 256.719 331.823C257.618 331.823 258.157 331.643 257.978 331.463ZM366.562 347.099C356.674 347.099 342.472 348.178 347.865 348.537C364.764 349.436 397.663 348.358 399.461 346.74C399.82 346.381 395.865 346.381 390.652 346.74C385.438 347.099 380.225 347.279 379.326 347.099C378.427 347.099 372.494 347.099 366.562 347.099ZM363.146 393.11C355.056 394.368 367.461 394.727 384.36 393.649C390.292 393.29 391.371 392.93 389.214 392.571C387.596 392.211 383.281 392.391 379.685 392.75C375.91 393.11 371.236 393.29 369.258 393.11C367.281 392.75 364.584 392.75 363.146 393.11ZM388.494 334.339C386.157 334.339 384.36 334.698 384.36 335.058C384.36 335.417 385.978 335.777 387.955 335.777C389.933 335.777 391.73 335.417 392.09 335.058C392.449 334.518 391.011 334.339 388.494 334.339ZM401.798 358.961C401.438 358.961 401.079 359.501 401.079 360.04C401.079 360.759 401.438 361.118 401.798 361.118C402.157 361.118 402.517 360.579 402.517 360.04C402.517 359.321 402.157 358.961 401.798 358.961Z" fill="white" fill-opacity="0.2"/>
</svg>
