<svg width="110" height="81" viewBox="0 0 110 81" fill="none" xmlns="http://www.w3.org/2000/svg">
<path fill-rule="evenodd" clip-rule="evenodd" d="M104.317 44.1332C103.749 43.5373 104.078 43.7484 103.884 44.5485C103.575 43.7336 103.847 44.4089 103.707 43.5486C102.501 41.9265 100.695 43.3083 99.8809 43.8257C99.7638 43.5578 99.684 43.4295 99.6092 43.1503C99.5019 42.5805 99.3946 42.0108 99.245 41.4524C99.7792 39.2144 102.124 39.3342 103.441 38.8317C103.09 38.0281 102.776 37.3641 102.382 36.5718C102.778 36.0169 103.487 36.126 103.531 34.7675C102.792 35.5641 99.3623 31.3957 97.5298 30.9889C97.2354 29.7211 97.4697 30.2569 97.0564 30.0683C97.3888 27.5852 99.3592 30.1995 100.552 30.9273C100.121 29.9954 99.6898 29.0635 99.2213 27.992C99.485 27.622 99.7113 27.1125 99.975 26.7426C99.5911 25.6484 99.2495 24.5429 98.8656 23.4487C99.3783 23.1617 99.891 22.8747 100.399 22.7386C100.446 22.5763 100.451 22.4254 100.536 22.4027C100.044 20.7388 100.082 20.8784 99.9095 19.7275C99.8721 19.5879 99.8347 19.4483 99.8347 19.4483C99.6556 19.7955 99.4765 20.1428 99.2974 20.49C99.2974 20.49 99.3397 20.4787 99.3023 20.3391C99.2177 20.3618 99.1754 20.3731 99.0907 20.3958C99.1705 20.524 99.2128 20.5127 99.2128 20.5127C98.153 22.1433 96.7842 22.959 94.7579 23.3523C94.7205 23.2127 94.6831 23.0731 94.6831 23.0731C95.8778 22.4537 97.0675 21.9853 98.2622 21.3659C98.3094 21.2036 98.3143 21.0527 98.399 21.03C98.2591 20.1697 98.1991 19.4377 98.0592 18.5773C97.3417 17.4229 96.45 16.4648 95.7748 15.299C96.0661 15.3706 96.3998 15.4309 96.6537 15.3628C96.1851 14.2913 95.9036 13.9179 95.4106 13.6011C95.134 13.0767 94.8574 12.5523 94.5385 12.0392C94.8347 11.9598 95.131 11.8804 95.4695 11.7897C93.374 7.8623 83.6719 12.1079 82.4104 13.4933C82.2509 13.2368 82.0118 12.852 81.8523 12.5955C81.8867 11.5388 82.1308 11.7727 81.8088 10.0634C85.4952 8.92599 89.1816 7.78859 92.9055 6.7908C92.8779 6.3493 92.808 5.91914 92.743 5.33803C92.3818 4.8363 92.0205 4.33456 91.7016 3.82149C90.5334 2.33896 86.6433 4.57833 85.4211 4.7562C85.6118 2.75989 86.9414 3.15179 87.589 3.87604C87.4719 3.60817 87.3174 3.20068 87.2425 2.92147C88.8291 4.44156 90.7272 1.53887 92.2113 2.33825C92.0942 2.07037 91.9396 1.66289 91.8648 1.38368C88.1054 0.89469 85.0961 1.85068 81.4195 2.68619C80.6578 2.89028 78.6346 4.47981 78.6346 4.47981C78.1366 4.31398 77.5411 3.27649 76.8837 2.85413C75.2077 1.50766 69.9892 5.89854 69.0454 5.25365C65.2652 2.82505 62.1142 4.26789 59.4808 5.27277C56.2077 6.59868 52.5557 6.67946 49.0533 7.31867C47.7464 7.51922 46.5922 9.47442 45.4643 9.32773C43.5423 9.09457 40.9157 8.60134 39.667 10.8811C39.2733 10.0888 39.5125 10.4736 39.6916 10.1264C38.5184 8.7948 36.3664 11.7655 34.7731 11.7435C30.6979 11.9377 27.4407 15.3542 24.5742 18.3667C22.9466 19.4014 21.2766 20.4474 19.649 21.482C19.4472 21.2368 19.2081 20.852 18.964 20.6181C19.2719 18.8897 20.6456 17.9231 21.5864 17.3717C21.0755 16.3116 21.4742 16.9529 21.0884 17.2059C20.8965 16.6588 20.7045 16.1117 20.5549 15.5533C20.5175 15.4137 20.4801 15.2741 20.4801 15.2741C21.04 14.8248 21.6373 14.5151 22.2396 14.0545C20.8223 12.489 19.6043 16.4065 18.6261 16.8183C16.0301 17.9628 14.4981 21.2162 11.1128 22.1233C11.0754 21.9837 11.038 21.8441 11.038 21.8441C13.8229 20.0505 15.8627 16.6609 18.2392 14.5279C21.9569 11.1376 27.9235 9.53888 32.3458 6.40871C34.0808 5.94383 35.8158 5.47895 37.5084 5.0254C39.7481 3.22823 42.6876 1.84209 45.6576 2.09367C45.6251 1.80312 45.5552 1.37296 45.4804 1.09374C44.0307 -0.762257 41.8038 1.92925 40.7232 1.62027C36.2181 3.42594 31.6706 5.24295 27.0809 7.0713C23.9476 9.25753 20.8567 11.4324 17.686 13.479C16.0712 15.408 14.4191 17.1974 12.762 19.1377C8.921 19.8676 4.52013 21.0469 1.80327 24.6178C1.89095 25.7914 1.71373 24.7914 2.17735 26.0139C1.32121 26.5425 1.75723 27.3235 0.738598 26.3994C1.01027 27.0748 0.73369 26.5503 1.01027 27.0748C0.826279 27.5729 0.642289 28.0711 0.453391 28.7203C0.490799 28.8599 0.528206 28.9995 0.528206 28.9995C1.65788 27.799 2.12335 27.6743 3.23525 25.7304C3.29534 26.4625 3.27266 25.87 3.21071 26.4851C3.29043 26.6134 11.2281 23.7384 11.8923 22.6626C12.0253 25.0211 10.134 26.4256 8.86143 25.5696C7.96298 26.1096 8.69031 26.9621 7.92371 27.3171C8.12056 27.7133 8.2751 28.1208 8.50937 28.6565C9.4691 31.392 10.8232 31.0291 12.1086 32.7795C11.3806 35.8176 8.58842 32.6754 7.45384 34.0268C7.33671 33.7589 7.25698 33.6306 7.18217 33.3514C7.27171 33.1778 7.36125 33.0042 7.53051 32.9588C7.61515 32.9361 7.65746 32.9248 7.74209 32.9021C7.70469 32.7625 7.66728 32.6229 7.66728 32.6229C7.45079 32.8305 7.27662 33.0268 7.02272 33.0949C7.08772 33.676 6.96568 33.5591 7.20976 33.7929C7.02577 34.2911 2.5059 36.5496 2.5059 36.5496C2.60831 37.2703 2.75303 37.9797 2.81803 38.5608C3.28351 38.4361 3.10933 38.6324 3.33564 38.1229C3.58277 39.5529 3.42823 39.1455 4.03166 41.2282C3.77776 41.2963 3.56618 41.353 3.31228 41.421C3.35274 42.7568 3.19329 42.5003 3.72682 44.1529C3.23375 43.8361 2.74068 43.5193 2.25252 43.0516C2.36965 43.3195 2.52419 43.727 2.59901 44.0062C2.10103 43.8404 1.60796 43.5236 1.10999 43.3578C1.14739 43.4974 1.1848 43.637 1.1848 43.637C3.07058 46.2739 4.23885 47.7565 6.26325 48.7103C6.61651 48.1668 6.82318 48.261 7.44133 49.891C6.81641 49.7591 6.22889 49.7669 5.64628 49.6238C5.64137 49.7747 5.63647 49.9257 5.63647 49.9257C6.69065 52.3366 7.73687 53.7022 8.79292 54.7659C9.33507 53.5732 15.401 51.4989 16.6717 53.7022C16.3006 53.5023 15.8922 53.1629 15.4789 52.9744C15.4365 52.9857 15.3942 52.9971 15.3942 52.9971C15.9701 54.6383 16.2516 55.0118 16.8243 55.4568C16.6305 56.2569 16.5183 55.8381 15.8088 55.729C16.3797 57.5212 16.5017 57.6381 17.0549 58.6869C15.8946 58.2497 14.8446 59.5784 13.1263 58.2433C12.9521 58.4396 12.7779 58.6359 12.6087 58.6813C13.3685 59.8243 13.2612 59.2546 13.6156 61.2544C13.8891 60.5826 13.7002 61.2318 13.65 60.1978C14.0063 60.8505 14.3626 61.5032 14.6815 62.0162C14.8795 64.9558 9.31037 64.6525 8.00534 63.5059C7.95812 63.6681 7.86858 63.8418 7.78394 63.8644C7.9808 64.2606 8.21997 64.6454 8.45423 65.1811C8.10589 65.5737 7.72995 65.5248 7.35401 65.4759C7.30679 65.6382 7.30188 65.7892 7.21725 65.8118C7.68087 67.0343 8.10217 68.2681 8.56579 69.4905C8.6081 69.4792 9.14044 68.5884 9.90213 68.3843C9.58323 67.8712 9.4986 67.8939 9.10489 67.1016C10.0064 67.7579 11.2446 69.6705 12.0596 71.6966C11.7309 71.4854 11.3224 71.146 10.9937 70.9348C11.0311 71.0744 11.0685 71.214 11.0685 71.214C11.664 72.2515 12.3214 72.6739 12.904 72.817C12.7446 72.5605 12.6649 72.4322 12.5054 72.1757C13.215 72.2848 13.9619 72.5336 14.7138 72.6313C14.761 72.4691 14.8506 72.2954 14.9352 72.2728C13.9166 71.3487 12.8636 71.4812 12.6422 71.8398C12.4827 71.5832 12.3282 71.1757 12.1687 70.9192C12.1313 70.7796 12.0939 70.64 12.0939 70.64C13.0525 70.832 14.073 70.409 15.1566 71.9142C15.1566 71.9142 15.1063 70.8802 15.3179 70.8235C16.493 70.808 17.6729 70.6414 18.8479 70.6258C19.4207 71.0709 19.9168 72.5839 20.6589 72.9836C19.4752 75.8445 13.6117 74.2733 11.9829 72.7646C11.978 72.9155 11.9731 73.0665 11.9731 73.0665C12.6109 74.0926 13.1984 74.0848 13.8362 75.111C13.1689 74.9905 12.5066 74.7191 11.8394 74.5986C12.0638 75.4362 12.2508 76.1343 12.4753 76.9719C14.355 77.2164 15.7054 79.5479 17.4354 79.234C17.0644 79.0341 16.656 78.6947 16.2426 78.5062C16.158 78.5289 16.1157 78.5402 16.031 78.5629C16.8093 76.5588 19.0907 78.6408 19.7628 78.6104C19.6408 78.4934 19.4764 78.3878 19.3918 78.4105C19.6929 78.1802 19.994 77.9499 20.3326 77.8592C20.2951 77.7196 20.2577 77.58 20.2577 77.58C18.6645 77.558 17.0712 77.536 15.3982 77.3858C16.4137 77.1137 17.4293 76.8415 18.4449 76.5694C21.0685 75.8664 23.204 74.6957 25.987 74.2493C24.9873 76.6119 20.9483 74.4023 20.4172 77.8365C21.7958 76.7189 22.9237 76.8656 24.6568 77.7479C24.6794 78.3404 24.7021 78.9328 24.6825 79.5366C25.0682 79.2836 26.8093 81.2112 26.8731 79.2489C26.2059 79.1284 25.6183 79.1362 24.9511 79.0157C24.9137 78.8761 24.8763 78.7365 24.8763 78.7365C24.9855 77.9591 26.0011 77.687 26.434 77.2717C26.5039 77.7019 26.5738 78.132 26.7235 78.6905C27.7783 77.2108 28.8963 77.6594 30.0566 78.0966C30.1284 77.1796 30.1628 76.123 30.2768 75.1946C30.2394 75.055 30.202 74.9154 30.202 74.9154C29.7966 75.7722 29.7347 76.3873 29.2122 76.9762C29.0999 76.5574 28.9877 76.1386 28.8381 75.5801C28.0439 75.4937 27.2871 75.5468 26.5352 75.449C26.4132 75.3321 26.3335 75.2038 26.2489 75.2265C26.7358 73.1508 29.3054 74.1082 30.7687 72.968C33.3991 70.7669 36.4183 69.509 38.4936 67.6062C39.1234 67.5871 39.7956 67.5566 40.388 67.3979C41.9053 64.5973 44.654 65.2074 46.6772 63.6179C58.9729 53.141 80.232 55.9736 92.0824 51.4516C91.9505 51.6366 91.8187 51.8215 91.6494 51.8669C91.6819 52.1574 91.677 52.3084 91.7518 52.5876C92.1002 52.195 92.4534 51.6515 92.8018 51.2589C92.8294 51.7004 92.8146 52.1532 92.8796 52.7343C93.6836 52.5189 94.2889 53.2545 94.6894 52.5486C94.7888 52.0731 94.8881 51.5976 94.9078 50.9938C95.7915 50.9067 96.203 52.4423 97.3878 52.1249C97.37 51.3815 97.3523 50.6381 97.3719 50.0343C97.6209 50.1172 97.8699 50.2001 98.0391 50.1548C98.1238 50.1321 98.1661 50.1208 98.2507 50.0981C98.114 50.434 98.0146 50.9095 97.9201 51.2341C97.9103 51.536 97.9054 51.6869 97.8956 51.9888C100.064 51.1086 102.269 50.3681 104.395 49.4993C104.198 49.1031 103.958 48.7183 103.724 48.1826C103.809 48.1599 103.851 48.1485 103.936 48.1259C104.564 45.5633 107.334 48.1131 108.703 47.2974C108.735 47.588 108.73 47.7389 108.805 48.0182C108.895 47.8445 108.984 47.6709 109.154 47.6256C109.116 47.486 109.079 47.3463 109.079 47.3463C108.994 47.369 108.909 47.3917 108.825 47.4144C109.041 47.2067 109.258 46.9991 109.399 46.5122C109.409 46.2104 109.499 46.0367 109.509 45.7348C108.303 44.1127 104.926 46.0651 104.317 44.1332Z" fill="white"/>
</svg>
