<svg width="110" height="81" viewBox="0 0 110 81" fill="none" xmlns="http://www.w3.org/2000/svg">
<path fill-rule="evenodd" clip-rule="evenodd" d="M5.68269 44.1332C6.25057 43.5373 5.92185 43.7484 6.11566 44.5485C6.42474 43.7336 6.15307 44.4089 6.29288 43.5486C7.49856 41.9265 9.30528 43.3083 10.1191 43.8257C10.2362 43.5578 10.316 43.4295 10.3908 43.1503C10.4981 42.5805 10.6054 42.0108 10.755 41.4524C10.2208 39.2144 7.87567 39.3342 6.55897 38.8317C6.91036 38.0281 7.22435 37.3641 7.61806 36.5718C7.22249 36.0169 6.51293 36.126 6.46876 34.7675C7.20777 35.5641 10.6377 31.3957 12.4702 30.9889C12.7646 29.7211 12.5303 30.2569 12.9436 30.0683C12.6112 27.5852 10.6408 30.1995 9.44799 30.9273C9.87911 29.9954 10.3102 29.0635 10.7787 27.992C10.515 27.622 10.2887 27.1125 10.025 26.7426C10.4089 25.6484 10.7505 24.5429 11.1344 23.4487C10.6217 23.1617 10.109 22.8747 9.60118 22.7386C9.55396 22.5763 9.54905 22.4254 9.46442 22.4027C9.95563 20.7388 9.91822 20.8784 10.0905 19.7275C10.1279 19.5879 10.1653 19.4483 10.1653 19.4483C10.3444 19.7955 10.5235 20.1428 10.7026 20.49C10.7026 20.49 10.6603 20.4787 10.6977 20.3391C10.7823 20.3618 10.8246 20.3731 10.9093 20.3958C10.8295 20.524 10.7872 20.5127 10.7872 20.5127C11.847 22.1433 13.2158 22.959 15.2421 23.3523C15.2795 23.2127 15.3169 23.0731 15.3169 23.0731C14.1222 22.4537 12.9325 21.9853 11.7378 21.3659C11.6906 21.2036 11.6857 21.0527 11.601 21.03C11.7409 20.1697 11.8009 19.4377 11.9408 18.5773C12.6583 17.4229 13.55 16.4648 14.2252 15.299C13.9339 15.3706 13.6002 15.4309 13.3463 15.3628C13.8149 14.2913 14.0964 13.9179 14.5894 13.6011C14.866 13.0767 15.1426 12.5523 15.4615 12.0392C15.1653 11.9598 14.869 11.8804 14.5305 11.7897C16.626 7.8623 26.3281 12.1079 27.5896 13.4933C27.7491 13.2368 27.9882 12.852 28.1477 12.5955C28.1133 11.5388 27.8692 11.7727 28.1912 10.0634C24.5048 8.92599 20.8184 7.78859 17.0945 6.7908C17.1221 6.3493 17.192 5.91914 17.257 5.33803C17.6182 4.8363 17.9795 4.33456 18.2984 3.82149C19.4666 2.33896 23.3567 4.57833 24.5789 4.7562C24.3882 2.75989 23.0586 3.15179 22.411 3.87604C22.5281 3.60817 22.6826 3.20068 22.7575 2.92147C21.1709 4.44156 19.2728 1.53887 17.7887 2.33825C17.9058 2.07037 18.0604 1.66289 18.1352 1.38368C21.8946 0.89469 24.9039 1.85068 28.5805 2.68619C29.3422 2.89028 31.3654 4.47981 31.3654 4.47981C31.8634 4.31398 32.4589 3.27649 33.1163 2.85413C34.7923 1.50766 40.0108 5.89854 40.9546 5.25365C44.7348 2.82505 47.8858 4.26789 50.5192 5.27277C53.7923 6.59868 57.4443 6.67946 60.9467 7.31867C62.2536 7.51922 63.4078 9.47442 64.5357 9.32773C66.4577 9.09457 69.0843 8.60134 70.333 10.8811C70.7267 10.0888 70.4875 10.4736 70.3084 10.1264C71.4816 8.7948 73.6336 11.7655 75.2269 11.7435C79.3021 11.9377 82.5593 15.3542 85.4258 18.3667C87.0534 19.4014 88.7234 20.4474 90.351 21.482C90.5528 21.2368 90.7919 20.852 91.036 20.6181C90.7281 18.8897 89.3544 17.9231 88.4136 17.3717C88.9245 16.3116 88.5258 16.9529 88.9116 17.2059C89.1035 16.6588 89.2955 16.1117 89.4451 15.5533C89.4825 15.4137 89.5199 15.2741 89.5199 15.2741C88.96 14.8248 88.3627 14.5151 87.7604 14.0545C89.1777 12.489 90.3957 16.4065 91.3739 16.8183C93.9699 17.9628 95.5019 21.2162 98.8872 22.1233C98.9246 21.9837 98.962 21.8441 98.962 21.8441C96.1771 20.0505 94.1373 16.6609 91.7608 14.5279C88.0431 11.1376 82.0765 9.53888 77.6542 6.40871C75.9192 5.94383 74.1842 5.47895 72.4916 5.0254C70.2519 3.22823 67.3124 1.84209 64.3424 2.09367C64.3749 1.80312 64.4448 1.37296 64.5196 1.09374C65.9693 -0.762257 68.1962 1.92925 69.2768 1.62027C73.7819 3.42594 78.3294 5.24295 82.9191 7.0713C86.0524 9.25753 89.1433 11.4324 92.314 13.479C93.9288 15.408 95.5809 17.1974 97.238 19.1377C101.079 19.8676 105.48 21.0469 108.197 24.6178C108.109 25.7914 108.286 24.7914 107.823 26.0139C108.679 26.5425 108.243 27.3235 109.261 26.3994C108.99 27.0748 109.266 26.5503 108.99 27.0748C109.174 27.5729 109.358 28.0711 109.547 28.7203C109.509 28.8599 109.472 28.9995 109.472 28.9995C108.342 27.799 107.877 27.6743 106.765 25.7304C106.705 26.4625 106.727 25.87 106.789 26.4851C106.71 26.6134 98.7719 23.7384 98.1077 22.6626C97.9747 25.0211 99.866 26.4256 101.139 25.5696C102.037 26.1096 101.31 26.9621 102.076 27.3171C101.879 27.7133 101.725 28.1208 101.491 28.6565C100.531 31.392 99.1768 31.0291 97.8914 32.7795C98.6194 35.8176 101.412 32.6754 102.546 34.0268C102.663 33.7589 102.743 33.6306 102.818 33.3514C102.728 33.1778 102.639 33.0042 102.469 32.9588C102.385 32.9361 102.343 32.9248 102.258 32.9021C102.295 32.7625 102.333 32.6229 102.333 32.6229C102.549 32.8305 102.723 33.0268 102.977 33.0949C102.912 33.676 103.034 33.5591 102.79 33.7929C102.974 34.2911 107.494 36.5496 107.494 36.5496C107.392 37.2703 107.247 37.9797 107.182 38.5608C106.716 38.4361 106.891 38.6324 106.664 38.1229C106.417 39.5529 106.572 39.1455 105.968 41.2282C106.222 41.2963 106.434 41.353 106.688 41.421C106.647 42.7568 106.807 42.5003 106.273 44.1529C106.766 43.8361 107.259 43.5193 107.747 43.0516C107.63 43.3195 107.476 43.727 107.401 44.0062C107.899 43.8404 108.392 43.5236 108.89 43.3578C108.853 43.4974 108.815 43.637 108.815 43.637C106.929 46.2739 105.761 47.7565 103.737 48.7103C103.383 48.1668 103.177 48.261 102.559 49.891C103.184 49.7591 103.771 49.7669 104.354 49.6238C104.359 49.7747 104.364 49.9257 104.364 49.9257C103.309 52.3366 102.263 53.7022 101.207 54.7659C100.665 53.5732 94.599 51.4989 93.3283 53.7022C93.6994 53.5023 94.1078 53.1629 94.5211 52.9744C94.5635 52.9857 94.6058 52.9971 94.6058 52.9971C94.0299 54.6383 93.7484 55.0118 93.1757 55.4568C93.3695 56.2569 93.4817 55.8381 94.1912 55.729C93.6203 57.5212 93.4983 57.6381 92.9451 58.6869C94.1054 58.2497 95.1554 59.5784 96.8737 58.2433C97.0479 58.4396 97.2221 58.6359 97.3913 58.6813C96.6315 59.8243 96.7388 59.2546 96.3844 61.2544C96.1109 60.5826 96.2998 61.2318 96.35 60.1978C95.9937 60.8505 95.6374 61.5032 95.3185 62.0162C95.1205 64.9558 100.69 64.6525 101.995 63.5059C102.042 63.6681 102.131 63.8418 102.216 63.8644C102.019 64.2606 101.78 64.6454 101.546 65.1811C101.894 65.5737 102.27 65.5248 102.646 65.4759C102.693 65.6382 102.698 65.7892 102.783 65.8118C102.319 67.0343 101.898 68.2681 101.434 69.4905C101.392 69.4792 100.86 68.5884 100.098 68.3843C100.417 67.8712 100.501 67.8939 100.895 67.1016C99.9936 67.7579 98.7554 69.6705 97.9404 71.6966C98.2691 71.4854 98.6776 71.146 99.0063 70.9348C98.9689 71.0744 98.9315 71.214 98.9315 71.214C98.336 72.2515 97.6786 72.6739 97.096 72.817C97.2554 72.5605 97.3351 72.4322 97.4946 72.1757C96.785 72.2848 96.0381 72.5336 95.2862 72.6313C95.239 72.4691 95.1494 72.2954 95.0648 72.2728C96.0834 71.3487 97.1364 71.4812 97.3578 71.8398C97.5173 71.5832 97.6718 71.1757 97.8313 70.9192C97.8687 70.7796 97.9061 70.64 97.9061 70.64C96.9475 70.832 95.927 70.409 94.8434 71.9142C94.8434 71.9142 94.8937 70.8802 94.6821 70.8235C93.507 70.808 92.3271 70.6414 91.1521 70.6258C90.5793 71.0709 90.0832 72.5839 89.3411 72.9836C90.5248 75.8445 96.3883 74.2733 98.0171 72.7646C98.022 72.9155 98.0269 73.0665 98.0269 73.0665C97.3891 74.0926 96.8016 74.0848 96.1638 75.111C96.8311 74.9905 97.4934 74.7191 98.1606 74.5986C97.9362 75.4362 97.7492 76.1343 97.5247 76.9719C95.645 77.2164 94.2946 79.5479 92.5646 79.234C92.9356 79.0341 93.344 78.6947 93.7574 78.5062C93.842 78.5289 93.8843 78.5402 93.969 78.5629C93.1907 76.5588 90.9093 78.6408 90.2372 78.6104C90.3592 78.4934 90.5236 78.3878 90.6082 78.4105C90.3071 78.1802 90.006 77.9499 89.6674 77.8592C89.7049 77.7196 89.7423 77.58 89.7423 77.58C91.3355 77.558 92.9288 77.536 94.6018 77.3858C93.5863 77.1137 92.5707 76.8415 91.5551 76.5694C88.9315 75.8664 86.796 74.6957 84.013 74.2493C85.0127 76.6119 89.0517 74.4023 89.5828 77.8365C88.2042 76.7189 87.0763 76.8656 85.3432 77.7479C85.3206 78.3404 85.2979 78.9328 85.3175 79.5366C84.9318 79.2836 83.1907 81.2112 83.1269 79.2489C83.7941 79.1284 84.3817 79.1362 85.0489 79.0157C85.0863 78.8761 85.1237 78.7365 85.1237 78.7365C85.0145 77.9591 83.9989 77.687 83.566 77.2717C83.4961 77.7019 83.4262 78.132 83.2765 78.6905C82.2217 77.2108 81.1037 77.6594 79.9434 78.0966C79.8716 77.1796 79.8372 76.123 79.7232 75.1946C79.7606 75.055 79.798 74.9154 79.798 74.9154C80.2034 75.7722 80.2653 76.3873 80.7878 76.9762C80.9001 76.5574 81.0123 76.1386 81.1619 75.5801C81.9561 75.4937 82.7129 75.5468 83.4648 75.449C83.5868 75.3321 83.6665 75.2038 83.7511 75.2265C83.2642 73.1508 80.6946 74.1082 79.2313 72.968C76.6009 70.7669 73.5817 69.509 71.5064 67.6062C70.8766 67.5871 70.2044 67.5566 69.612 67.3979C68.0947 64.5973 65.346 65.2074 63.3228 63.6179C51.0271 53.141 29.768 55.9736 17.9176 51.4516C18.0495 51.6366 18.1813 51.8215 18.3506 51.8669C18.3181 52.1574 18.323 52.3084 18.2482 52.5876C17.8998 52.195 17.5466 51.6515 17.1982 51.2589C17.1706 51.7004 17.1854 52.1532 17.1204 52.7343C16.3164 52.5189 15.7111 53.2545 15.3106 52.5486C15.2112 52.0731 15.1119 51.5976 15.0922 50.9938C14.2085 50.9067 13.797 52.4423 12.6122 52.1249C12.63 51.3815 12.6477 50.6381 12.6281 50.0343C12.3791 50.1172 12.1301 50.2001 11.9609 50.1548C11.8762 50.1321 11.8339 50.1208 11.7493 50.0981C11.886 50.434 11.9854 50.9095 12.0799 51.2341C12.0897 51.536 12.0946 51.6869 12.1044 51.9888C9.93646 51.1086 7.73111 50.3681 5.60549 49.4993C5.80234 49.1031 6.04152 48.7183 6.27578 48.1826C6.19115 48.1599 6.14883 48.1485 6.0642 48.1259C5.43555 45.5633 2.66605 48.1131 1.29721 47.2974C1.26471 47.588 1.26961 47.7389 1.1948 48.0182C1.10525 47.8445 1.01572 47.6709 0.846447 47.6256C0.883856 47.486 0.921263 47.3463 0.921263 47.3463C1.0059 47.369 1.09053 47.3917 1.17517 47.4144C0.958678 47.2067 0.742188 46.9991 0.600511 46.5122C0.590696 46.2104 0.501158 46.0367 0.491342 45.7348C1.69702 44.1127 5.07434 46.0651 5.68269 44.1332Z" fill="#26343A"/>
</svg>
