<svg width="121" height="104" viewBox="0 0 121 104" fill="none" xmlns="http://www.w3.org/2000/svg">
<path fill-rule="evenodd" clip-rule="evenodd" d="M113.317 64.1332C112.749 63.5373 113.078 63.7484 112.884 64.5485C112.575 63.7336 112.847 64.4089 112.707 63.5486C111.501 61.9265 109.695 63.3084 108.881 63.8257C108.764 63.5578 108.684 63.4295 108.609 63.1503C108.502 62.5805 108.395 62.0108 108.245 61.4524C108.779 59.2144 111.124 59.3342 112.441 58.8317C112.09 58.0281 111.776 57.3641 111.382 56.5718C111.778 56.0169 112.487 56.126 112.531 54.7675C111.792 55.5641 108.362 51.3957 106.53 50.9889C106.235 49.7211 106.47 50.2569 106.056 50.0683C106.389 47.5852 108.359 50.1995 109.552 50.9273C109.121 49.9954 108.69 49.0635 108.221 47.992C108.485 47.622 108.711 47.1125 108.975 46.7426C108.591 45.6484 108.25 44.5429 107.866 43.4487C108.378 43.1617 108.891 42.8747 109.399 42.7386C109.446 42.5763 109.451 42.4254 109.536 42.4027C109.044 40.7388 109.082 40.8784 108.909 39.7275C108.872 39.5879 108.835 39.4483 108.835 39.4483C108.656 39.7955 108.476 40.1428 108.297 40.49C108.297 40.49 108.34 40.4787 108.302 40.3391C108.218 40.3618 108.175 40.3731 108.091 40.3958C108.17 40.524 108.213 40.5127 108.213 40.5127C107.153 42.1433 105.784 42.959 103.758 43.3523C103.721 43.2127 103.683 43.0731 103.683 43.0731C104.878 42.4537 106.068 41.9853 107.262 41.3659C107.309 41.2036 107.314 41.0527 107.399 41.03C107.259 40.1697 107.199 39.4377 107.059 38.5773C106.342 37.4229 105.45 36.4648 104.775 35.299C105.066 35.3706 105.4 35.4309 105.654 35.3628C105.185 34.2913 104.904 33.9179 104.411 33.6011C104.134 33.0767 103.857 32.5523 103.539 32.0392C103.835 31.9598 104.131 31.8804 104.469 31.7897C102.374 27.8623 92.6719 32.1079 91.4104 33.4933C91.2509 33.2368 91.0118 32.852 90.8523 32.5955C90.8867 31.5388 91.1308 31.7727 90.8088 30.0634C94.4952 28.926 98.1816 27.7886 101.905 26.7908C101.878 26.3493 101.808 25.9191 101.743 25.338C101.382 24.8363 101.021 24.3346 100.702 23.8215C99.5334 22.339 95.6433 24.5783 94.4211 24.7562C94.6118 22.7599 95.9414 23.1518 96.589 23.876C96.4719 23.6082 96.3174 23.2007 96.2425 22.9215C97.8291 24.4416 99.7272 21.5389 101.211 22.3383C101.094 22.0704 100.94 21.6629 100.865 21.3837C97.1054 20.8947 94.0961 21.8507 90.4195 22.6862C89.6578 22.8903 87.6346 24.4798 87.6346 24.4798C87.1366 24.314 86.5411 23.2765 85.8837 22.8541C84.2077 21.5077 78.9892 25.8985 78.0454 25.2537C74.2652 22.825 71.1142 24.2679 68.4808 25.2728C65.2077 26.5987 61.5557 26.6795 58.0533 27.3187C56.7464 27.5192 55.5922 29.4744 54.4643 29.3277C52.5423 29.0946 49.9157 28.6013 48.667 30.8811C48.2733 30.0888 48.5125 30.4736 48.6916 30.1264C47.5184 28.7948 45.3664 31.7655 43.7731 31.7435C39.6979 31.9377 36.4407 35.3542 33.5742 38.3667C31.9466 39.4014 30.2766 40.4474 28.649 41.482C28.4472 41.2368 28.2081 40.852 27.964 40.6181C28.2719 38.8897 29.6456 37.9231 30.5864 37.3717C30.0755 36.3116 30.4742 36.9529 30.0884 37.2059C29.8965 36.6588 29.7045 36.1117 29.5549 35.5533C29.5175 35.4137 29.4801 35.2741 29.4801 35.2741C30.04 34.8248 30.6373 34.5151 31.2396 34.0545C29.8223 32.489 28.6043 36.4065 27.6261 36.8183C25.0301 37.9628 23.4981 41.2162 20.1128 42.1233C20.0754 41.9837 20.038 41.8441 20.038 41.8441C22.8229 40.0505 24.8627 36.6609 27.2392 34.5279C30.9569 31.1376 36.9235 29.5389 41.3458 26.4087C43.0808 25.9438 44.8158 25.4789 46.5084 25.0254C48.7481 23.2282 51.6876 21.8421 54.6576 22.0937C54.6251 21.8031 54.5552 21.373 54.4804 21.0937C53.0307 19.2377 50.8038 21.9293 49.7232 21.6203C45.2181 23.4259 40.6706 25.243 36.0809 27.0713C32.9476 29.2575 29.8567 31.4324 26.686 33.479C25.0712 35.408 23.4191 37.1974 21.762 39.1377C17.921 39.8676 13.5201 41.0469 10.8033 44.6178C10.8909 45.7914 10.7137 44.7914 11.1773 46.0139C10.3212 46.5425 10.7572 47.3235 9.7386 46.3994C10.0103 47.0748 9.73369 46.5503 10.0103 47.0748C9.82628 47.5729 9.64229 48.0711 9.45339 48.7203C9.4908 48.8599 9.52821 48.9995 9.52821 48.9995C10.6579 47.799 11.1234 47.6743 12.2352 45.7304C12.2953 46.4625 12.2727 45.87 12.2107 46.4851C12.2904 46.6134 20.2281 43.7384 20.8923 42.6626C21.0253 45.0211 19.134 46.4256 17.8614 45.5696C16.963 46.1096 17.6903 46.9621 16.9237 47.3171C17.1206 47.7133 17.2751 48.1208 17.5094 48.6565C18.4691 51.392 19.8232 51.0291 21.1086 52.7795C20.3806 55.8176 17.5884 52.6754 16.4538 54.0268C16.3367 53.7589 16.257 53.6306 16.1822 53.3514C16.2717 53.1778 16.3612 53.0042 16.5305 52.9588C16.6151 52.9361 16.6575 52.9248 16.7421 52.9021C16.7047 52.7625 16.6673 52.6229 16.6673 52.6229C16.4508 52.8305 16.2766 53.0268 16.0227 53.0949C16.0877 53.676 15.9657 53.5591 16.2098 53.7929C16.0258 54.2911 11.5059 56.5496 11.5059 56.5496C11.6083 57.2703 11.753 57.9797 11.818 58.5608C12.2835 58.4361 12.1093 58.6324 12.3356 58.1229C12.5828 59.5529 12.4282 59.1455 13.0317 61.2282C12.7778 61.2963 12.5662 61.353 12.3123 61.421C12.3527 62.7568 12.1933 62.5003 12.7268 64.1529C12.2337 63.8361 11.7407 63.5193 11.2525 63.0516C11.3697 63.3195 11.5242 63.727 11.599 64.0062C11.101 63.8404 10.608 63.5236 10.11 63.3578C10.1474 63.4974 10.1848 63.637 10.1848 63.637C12.0706 66.2739 13.2388 67.7565 15.2633 68.7103C15.6165 68.1668 15.8232 68.261 16.4413 69.891C15.8164 69.7592 15.2289 69.7669 14.6463 69.6238C14.6414 69.7747 14.6365 69.9257 14.6365 69.9257C15.6906 72.3366 16.7369 73.7022 17.7929 74.7659C18.3351 73.5732 24.401 71.4989 25.6717 73.7022C25.3006 73.5023 24.8922 73.1629 24.4789 72.9744C24.4365 72.9857 24.3942 72.9971 24.3942 72.9971C24.9701 74.6383 25.2516 75.0118 25.8243 75.4568C25.6305 76.2569 25.5183 75.8381 24.8088 75.729C25.3797 77.5212 25.5017 77.6381 26.0549 78.6869C24.8946 78.2497 23.8446 79.5784 22.1263 78.2433C21.9521 78.4396 21.7779 78.6359 21.6087 78.6813C22.3685 79.8243 22.2612 79.2546 22.6156 81.2544C22.8891 80.5826 22.7002 81.2318 22.65 80.1978C23.0063 80.8505 23.3626 81.5032 23.6815 82.0162C23.8795 84.9558 18.3104 84.6525 17.0053 83.5058C16.9581 83.6681 16.8686 83.8418 16.7839 83.8644C16.9808 84.2606 17.22 84.6454 17.4542 85.1811C17.1059 85.5737 16.73 85.5248 16.354 85.4759C16.3068 85.6382 16.3019 85.7892 16.2172 85.8118C16.6809 87.0343 17.1022 88.2681 17.5658 89.4905C17.6081 89.4792 18.1404 88.5884 18.9021 88.3843C18.5832 87.8712 18.4986 87.8939 18.1049 87.1016C19.0064 87.7579 20.2446 89.6705 21.0596 91.6966C20.7309 91.4854 20.3224 91.146 19.9937 90.9348C20.0311 91.0744 20.0685 91.214 20.0685 91.214C20.664 92.2515 21.3214 92.6739 21.904 92.817C21.7446 92.5605 21.6649 92.4322 21.5054 92.1757C22.215 92.2848 22.9619 92.5336 23.7138 92.6313C23.761 92.4691 23.8506 92.2954 23.9352 92.2728C22.9166 91.3487 21.8636 91.4812 21.6422 91.8398C21.4827 91.5832 21.3282 91.1757 21.1687 90.9192C21.1313 90.7796 21.0939 90.64 21.0939 90.64C22.0525 90.832 23.073 90.409 24.1566 91.9142C24.1566 91.9142 24.1063 90.8802 24.3179 90.8235C25.4929 90.808 26.6729 90.6414 27.8479 90.6258C28.4207 91.0709 28.9168 92.5839 29.6589 92.9836C28.4752 95.8445 22.6117 94.2733 20.9829 92.7646C20.978 92.9155 20.9731 93.0665 20.9731 93.0665C21.6109 94.0926 22.1984 94.0848 22.8362 95.111C22.1689 94.9905 21.5066 94.7191 20.8394 94.5986C21.0638 95.4362 21.2508 96.1343 21.4753 96.9719C23.355 97.2164 24.7054 99.5479 26.4354 99.234C26.0644 99.0341 25.656 98.6947 25.2426 98.5062C25.158 98.5289 25.1157 98.5402 25.031 98.5629C25.8093 96.5588 28.0907 98.6408 28.7628 98.6104C28.6408 98.4934 28.4764 98.3879 28.3918 98.4105C28.6929 98.1802 28.994 97.9499 29.3326 97.8592C29.2951 97.7196 29.2577 97.58 29.2577 97.58C27.6645 97.558 26.0712 97.536 24.3982 97.3858C25.4137 97.1137 26.4293 96.8415 27.4449 96.5694C30.0685 95.8664 32.204 94.6957 34.987 94.2493C33.9873 96.6119 29.9483 94.4023 29.4172 97.8365C30.7958 96.7189 31.9237 96.8656 33.6568 97.7479C33.6794 98.3404 33.7021 98.9328 33.6825 99.5366C34.0682 99.2836 35.8093 101.211 35.8731 99.2489C35.2059 99.1284 34.6183 99.1362 33.9511 99.0157C33.9137 98.8761 33.8763 98.7365 33.8763 98.7365C33.9855 97.9591 35.0011 97.687 35.434 97.2717C35.5039 97.7019 35.5738 98.132 35.7235 98.6905C36.7783 97.2108 37.8963 97.6594 39.0566 98.0966C39.1284 97.1796 39.1628 96.123 39.2768 95.1946C39.2394 95.055 39.202 94.9154 39.202 94.9154C38.7966 95.7722 38.7347 96.3873 38.2122 96.9762C38.0999 96.5574 37.9877 96.1386 37.8381 95.5801C37.0439 95.4937 36.2871 95.5468 35.5352 95.449C35.4132 95.3321 35.3335 95.2038 35.2489 95.2265C35.7358 93.1508 38.3054 94.1082 39.7687 92.968C42.3991 90.7669 45.4183 89.509 47.4936 87.6063C48.1234 87.5871 48.7956 87.5566 49.388 87.3979C50.9053 84.5973 53.654 85.2074 55.6772 83.6179C67.9729 73.141 89.232 75.9736 101.082 71.4516C100.951 71.6366 100.819 71.8215 100.649 71.8669C100.682 72.1574 100.677 72.3084 100.752 72.5876C101.1 72.195 101.453 71.6515 101.802 71.2589C101.829 71.7004 101.815 72.1532 101.88 72.7343C102.684 72.5189 103.289 73.2545 103.689 72.5486C103.789 72.0731 103.888 71.5976 103.908 70.9938C104.791 70.9067 105.203 72.4423 106.388 72.1249C106.37 71.3815 106.352 70.6381 106.372 70.0343C106.621 70.1172 106.87 70.2001 107.039 70.1548C107.124 70.1321 107.166 70.1208 107.251 70.0981C107.114 70.434 107.015 70.9095 106.92 71.2341C106.91 71.536 106.905 71.6869 106.896 71.9888C109.064 71.1086 111.269 70.3681 113.395 69.4993C113.198 69.1031 112.958 68.7183 112.724 68.1826C112.809 68.1599 112.851 68.1485 112.936 68.1259C113.564 65.5633 116.334 68.1131 117.703 67.2974C117.735 67.588 117.73 67.7389 117.805 68.0182C117.895 67.8445 117.984 67.6709 118.154 67.6256C118.116 67.486 118.079 67.3463 118.079 67.3463C117.994 67.369 117.909 67.3917 117.825 67.4144C118.041 67.2067 118.258 66.9991 118.399 66.5122C118.409 66.2104 118.499 66.0367 118.509 65.7348C117.303 64.1127 113.926 66.0651 113.317 64.1332Z" fill="white"/>
<path d="M55.335 69.5195L68.9444 54.9993L55.335 40.4795" fill="white"/>
<path d="M55.335 69.5195L68.9444 54.9993L55.335 40.4795" stroke="#292D32" stroke-width="3" stroke-miterlimit="10" stroke-linecap="square"/>
</svg>
