<svg width="121" height="104" viewBox="0 0 121 104" fill="none" xmlns="http://www.w3.org/2000/svg">
<path fill-rule="evenodd" clip-rule="evenodd" d="M7.68268 64.1332C8.25057 63.5373 7.92185 63.7484 8.11566 64.5485C8.42474 63.7336 8.15307 64.4089 8.29288 63.5486C9.49856 61.9265 11.3053 63.3084 12.1191 63.8257C12.2362 63.5578 12.316 63.4295 12.3908 63.1503C12.4981 62.5805 12.6054 62.0108 12.755 61.4524C12.2208 59.2144 9.87567 59.3342 8.55897 58.8317C8.91036 58.0281 9.22435 57.3641 9.61806 56.5718C9.22249 56.0169 8.51293 56.126 8.46876 54.7675C9.20777 55.5641 12.6377 51.3957 14.4702 50.9889C14.7646 49.7211 14.5303 50.2569 14.9436 50.0683C14.6112 47.5852 12.6408 50.1995 11.448 50.9273C11.8791 49.9954 12.3102 49.0635 12.7787 47.992C12.515 47.622 12.2887 47.1125 12.025 46.7426C12.4089 45.6484 12.7505 44.5429 13.1344 43.4487C12.6217 43.1617 12.109 42.8747 11.6012 42.7386C11.554 42.5763 11.5491 42.4254 11.4644 42.4027C11.9556 40.7388 11.9182 40.8784 12.0905 39.7275C12.1279 39.5879 12.1653 39.4483 12.1653 39.4483C12.3444 39.7955 12.5235 40.1428 12.7026 40.49C12.7026 40.49 12.6603 40.4787 12.6977 40.3391C12.7823 40.3618 12.8246 40.3731 12.9093 40.3958C12.8295 40.524 12.7872 40.5127 12.7872 40.5127C13.847 42.1433 15.2158 42.959 17.2421 43.3523C17.2795 43.2127 17.3169 43.0731 17.3169 43.0731C16.1222 42.4537 14.9325 41.9853 13.7378 41.3659C13.6906 41.2036 13.6857 41.0527 13.601 41.03C13.7409 40.1697 13.801 39.4377 13.9408 38.5773C14.6583 37.4229 15.55 36.4648 16.2252 35.299C15.9339 35.3706 15.6002 35.4309 15.3463 35.3628C15.8149 34.2913 16.0964 33.9179 16.5894 33.6011C16.866 33.0767 17.1426 32.5523 17.4615 32.0392C17.1653 31.9598 16.869 31.8804 16.5305 31.7897C18.626 27.8623 28.3281 32.1079 29.5896 33.4933C29.7491 33.2368 29.9882 32.852 30.1477 32.5955C30.1133 31.5388 29.8692 31.7727 30.1912 30.0634C26.5048 28.926 22.8184 27.7886 19.0945 26.7908C19.1221 26.3493 19.192 25.9191 19.257 25.338C19.6182 24.8363 19.9795 24.3346 20.2984 23.8215C21.4666 22.339 25.3567 24.5783 26.5789 24.7562C26.3882 22.7599 25.0586 23.1518 24.411 23.876C24.5281 23.6082 24.6826 23.2007 24.7575 22.9215C23.1709 24.4416 21.2728 21.5389 19.7887 22.3383C19.9058 22.0704 20.0604 21.6629 20.1352 21.3837C23.8946 20.8947 26.9039 21.8507 30.5805 22.6862C31.3422 22.8903 33.3654 24.4798 33.3654 24.4798C33.8634 24.314 34.4589 23.2765 35.1163 22.8541C36.7923 21.5077 42.0108 25.8985 42.9546 25.2537C46.7348 22.825 49.8858 24.2679 52.5192 25.2728C55.7923 26.5987 59.4443 26.6795 62.9467 27.3187C64.2536 27.5192 65.4078 29.4744 66.5357 29.3277C68.4577 29.0946 71.0843 28.6013 72.333 30.8811C72.7267 30.0888 72.4875 30.4736 72.3084 30.1264C73.4816 28.7948 75.6336 31.7655 77.2269 31.7435C81.3021 31.9377 84.5593 35.3542 87.4258 38.3667C89.0534 39.4014 90.7234 40.4474 92.351 41.482C92.5528 41.2368 92.7919 40.852 93.036 40.6181C92.7281 38.8897 91.3544 37.9231 90.4136 37.3717C90.9245 36.3116 90.5258 36.9529 90.9116 37.2059C91.1035 36.6588 91.2955 36.1117 91.4451 35.5533C91.4825 35.4137 91.5199 35.2741 91.5199 35.2741C90.96 34.8248 90.3627 34.5151 89.7604 34.0545C91.1777 32.489 92.3957 36.4065 93.3739 36.8183C95.9699 37.9628 97.5019 41.2162 100.887 42.1233C100.925 41.9837 100.962 41.8441 100.962 41.8441C98.1771 40.0505 96.1373 36.6609 93.7608 34.5279C90.0431 31.1376 84.0765 29.5389 79.6542 26.4087C77.9192 25.9438 76.1842 25.4789 74.4916 25.0254C72.2519 23.2282 69.3124 21.8421 66.3424 22.0937C66.3749 21.8031 66.4448 21.373 66.5196 21.0937C67.9693 19.2377 70.1962 21.9293 71.2768 21.6203C75.7819 23.4259 80.3294 25.243 84.9191 27.0713C88.0524 29.2575 91.1433 31.4324 94.314 33.479C95.9288 35.408 97.5809 37.1974 99.238 39.1377C103.079 39.8676 107.48 41.0469 110.197 44.6178C110.109 45.7914 110.286 44.7914 109.823 46.0139C110.679 46.5425 110.243 47.3235 111.261 46.3994C110.99 47.0748 111.266 46.5503 110.99 47.0748C111.174 47.5729 111.358 48.0711 111.547 48.7203C111.509 48.8599 111.472 48.9995 111.472 48.9995C110.342 47.799 109.877 47.6743 108.765 45.7304C108.705 46.4625 108.727 45.87 108.789 46.4851C108.71 46.6134 100.772 43.7384 100.108 42.6626C99.9747 45.0211 101.866 46.4256 103.139 45.5696C104.037 46.1096 103.31 46.9621 104.076 47.3171C103.879 47.7133 103.725 48.1208 103.491 48.6565C102.531 51.392 101.177 51.0291 99.8914 52.7795C100.619 55.8176 103.412 52.6754 104.546 54.0268C104.663 53.7589 104.743 53.6306 104.818 53.3514C104.728 53.1778 104.639 53.0042 104.469 52.9588C104.385 52.9361 104.343 52.9248 104.258 52.9021C104.295 52.7625 104.333 52.6229 104.333 52.6229C104.549 52.8305 104.723 53.0268 104.977 53.0949C104.912 53.676 105.034 53.5591 104.79 53.7929C104.974 54.2911 109.494 56.5496 109.494 56.5496C109.392 57.2703 109.247 57.9797 109.182 58.5608C108.716 58.4361 108.891 58.6324 108.664 58.1229C108.417 59.5529 108.572 59.1455 107.968 61.2282C108.222 61.2963 108.434 61.353 108.688 61.421C108.647 62.7568 108.807 62.5003 108.273 64.1529C108.766 63.8361 109.259 63.5193 109.747 63.0516C109.63 63.3195 109.476 63.727 109.401 64.0062C109.899 63.8404 110.392 63.5236 110.89 63.3578C110.853 63.4974 110.815 63.637 110.815 63.637C108.929 66.2739 107.761 67.7565 105.737 68.7103C105.383 68.1668 105.177 68.261 104.559 69.891C105.184 69.7592 105.771 69.7669 106.354 69.6238C106.359 69.7747 106.364 69.9257 106.364 69.9257C105.309 72.3366 104.263 73.7022 103.207 74.7659C102.665 73.5732 96.599 71.4989 95.3283 73.7022C95.6994 73.5023 96.1078 73.1629 96.5211 72.9744C96.5635 72.9857 96.6058 72.9971 96.6058 72.9971C96.0299 74.6383 95.7484 75.0118 95.1757 75.4568C95.3695 76.2569 95.4817 75.8381 96.1912 75.729C95.6203 77.5212 95.4983 77.6381 94.9451 78.6869C96.1054 78.2497 97.1554 79.5784 98.8737 78.2433C99.0479 78.4396 99.2221 78.6359 99.3913 78.6813C98.6315 79.8243 98.7388 79.2546 98.3844 81.2544C98.1109 80.5826 98.2998 81.2318 98.35 80.1978C97.9937 80.8505 97.6374 81.5032 97.3185 82.0162C97.1205 84.9558 102.69 84.6525 103.995 83.5058C104.042 83.6681 104.131 83.8418 104.216 83.8644C104.019 84.2606 103.78 84.6454 103.546 85.1811C103.894 85.5737 104.27 85.5248 104.646 85.4759C104.693 85.6382 104.698 85.7892 104.783 85.8118C104.319 87.0343 103.898 88.2681 103.434 89.4905C103.392 89.4792 102.86 88.5884 102.098 88.3843C102.417 87.8712 102.501 87.8939 102.895 87.1016C101.994 87.7579 100.755 89.6705 99.9404 91.6966C100.269 91.4854 100.678 91.146 101.006 90.9348C100.969 91.0744 100.931 91.214 100.931 91.214C100.336 92.2515 99.6786 92.6739 99.096 92.817C99.2554 92.5605 99.3351 92.4322 99.4946 92.1757C98.785 92.2848 98.0381 92.5336 97.2862 92.6313C97.239 92.4691 97.1494 92.2954 97.0648 92.2728C98.0834 91.3487 99.1364 91.4812 99.3578 91.8398C99.5173 91.5832 99.6718 91.1757 99.8313 90.9192C99.8687 90.7796 99.9061 90.64 99.9061 90.64C98.9475 90.832 97.927 90.409 96.8434 91.9142C96.8434 91.9142 96.8937 90.8802 96.6821 90.8235C95.5071 90.808 94.3271 90.6414 93.1521 90.6258C92.5793 91.0709 92.0832 92.5839 91.3411 92.9836C92.5248 95.8445 98.3883 94.2733 100.017 92.7646C100.022 92.9155 100.027 93.0665 100.027 93.0665C99.3891 94.0926 98.8016 94.0848 98.1638 95.111C98.8311 94.9905 99.4934 94.7191 100.161 94.5986C99.9362 95.4362 99.7492 96.1343 99.5247 96.9719C97.645 97.2164 96.2946 99.5479 94.5646 99.234C94.9356 99.0341 95.344 98.6947 95.7574 98.5062C95.842 98.5289 95.8843 98.5402 95.969 98.5629C95.1907 96.5588 92.9093 98.6408 92.2372 98.6104C92.3592 98.4934 92.5236 98.3879 92.6082 98.4105C92.3071 98.1802 92.006 97.9499 91.6674 97.8592C91.7049 97.7196 91.7423 97.58 91.7423 97.58C93.3355 97.558 94.9288 97.536 96.6018 97.3858C95.5863 97.1137 94.5707 96.8415 93.5551 96.5694C90.9315 95.8664 88.796 94.6957 86.013 94.2493C87.0127 96.6119 91.0517 94.4023 91.5828 97.8365C90.2042 96.7189 89.0763 96.8656 87.3432 97.7479C87.3206 98.3404 87.2979 98.9328 87.3175 99.5366C86.9318 99.2836 85.1907 101.211 85.1269 99.2489C85.7941 99.1284 86.3817 99.1362 87.0489 99.0157C87.0863 98.8761 87.1237 98.7365 87.1237 98.7365C87.0145 97.9591 85.9989 97.687 85.566 97.2717C85.4961 97.7019 85.4262 98.132 85.2765 98.6905C84.2217 97.2108 83.1037 97.6594 81.9434 98.0966C81.8716 97.1796 81.8372 96.123 81.7232 95.1946C81.7606 95.055 81.798 94.9154 81.798 94.9154C82.2034 95.7722 82.2653 96.3873 82.7878 96.9762C82.9001 96.5574 83.0123 96.1386 83.1619 95.5801C83.9561 95.4937 84.7129 95.5468 85.4648 95.449C85.5868 95.3321 85.6665 95.2038 85.7511 95.2265C85.2642 93.1508 82.6946 94.1082 81.2313 92.968C78.6009 90.7669 75.5817 89.509 73.5064 87.6063C72.8766 87.5871 72.2044 87.5566 71.612 87.3979C70.0947 84.5973 67.346 85.2074 65.3228 83.6179C53.0271 73.141 31.768 75.9736 19.9176 71.4516C20.0495 71.6366 20.1813 71.8215 20.3506 71.8669C20.3181 72.1574 20.323 72.3084 20.2482 72.5876C19.8998 72.195 19.5466 71.6515 19.1982 71.2589C19.1707 71.7004 19.1854 72.1532 19.1204 72.7343C18.3164 72.5189 17.7111 73.2545 17.3106 72.5486C17.2112 72.0731 17.1119 71.5976 17.0923 70.9938C16.2085 70.9067 15.797 72.4423 14.6122 72.1249C14.63 71.3815 14.6477 70.6381 14.6281 70.0343C14.3791 70.1172 14.1301 70.2001 13.9609 70.1548C13.8762 70.1321 13.8339 70.1208 13.7493 70.0981C13.886 70.434 13.9854 70.9095 14.0799 71.2341C14.0897 71.536 14.0946 71.6869 14.1044 71.9888C11.9365 71.1086 9.73111 70.3681 7.60549 69.4993C7.80235 69.1031 8.04152 68.7183 8.27578 68.1826C8.19115 68.1599 8.14883 68.1485 8.0642 68.1259C7.43555 65.5633 4.66605 68.1131 3.2972 67.2974C3.26471 67.588 3.26961 67.7389 3.1948 68.0182C3.10526 67.8445 3.01572 67.6709 2.84645 67.6256C2.88386 67.486 2.92127 67.3463 2.92127 67.3463C3.0059 67.369 3.09053 67.3917 3.17517 67.4144C2.95868 67.2067 2.74219 66.9991 2.60051 66.5122C2.5907 66.2104 2.50116 66.0367 2.49134 65.7348C3.69701 64.1127 7.07434 66.0651 7.68268 64.1332Z" fill="#26343A"/>
<path d="M65.665 69.5195L52.0556 54.9993L65.665 40.4795" stroke="white" stroke-opacity="0.4" stroke-width="3" stroke-miterlimit="10" stroke-linecap="square"/>
</svg>
