<svg width="830" height="529" viewBox="0 0 830 529" fill="none" xmlns="http://www.w3.org/2000/svg">
<path d="M643.231 483.615C644.743 483.615 643.483 484.121 640.711 484.627C637.938 485.133 626.092 485.387 614.497 485.133C602.903 484.88 596.602 485.133 600.635 485.387C608.196 485.893 609.708 486.905 605.676 488.93C604.163 489.69 606.432 489.943 615.001 490.196C625.083 490.449 637.938 491.715 632.141 492.221C630.881 492.221 629.872 492.728 629.62 493.487C629.368 494.246 621.807 494.5 606.684 494.5C591.813 494.5 583.999 494.753 583.999 495.512C583.999 496.018 584.755 496.525 586.016 496.525C589.544 496.525 587.78 499.562 583.747 500.575C580.219 501.334 579.967 501.587 582.739 501.587C584.503 501.587 588.536 501.334 591.561 500.828C595.594 500.322 597.61 500.322 598.114 501.081C599.374 502.853 598.114 503.612 593.829 504.372C591.561 504.878 589.04 505.891 588.032 506.65C585.512 508.675 588.536 509.435 598.618 508.675C608.448 508.169 615.758 509.182 608.196 509.941C601.895 510.7 601.139 514.244 607.44 513.991C612.733 513.738 614.749 514.751 614.749 517.282C614.749 518.801 613.489 519.56 609.708 520.066C606.432 520.573 604.667 521.332 604.667 522.345C604.667 523.104 604.163 523.864 603.659 523.864C603.155 523.864 596.098 524.37 587.78 525.382C579.714 526.142 562.575 526.901 549.973 526.901C527.54 526.901 527.036 527.154 527.036 529.179C527.036 530.698 525.776 531.964 523.255 532.723L519.475 534.242H524.011C526.532 534.242 530.061 534.495 532.077 534.495C535.858 534.495 536.866 536.774 533.589 537.786C532.581 538.039 531.825 539.052 532.329 539.811C532.833 540.824 531.321 541.077 526.028 540.824C521.995 540.571 518.97 540.824 518.97 541.583C518.97 543.102 515.442 543.861 505.612 544.368C501.327 544.621 496.034 544.874 487.716 545.38C483.684 545.633 478.643 546.14 472.845 546.393C471.333 546.393 469.821 546.646 468.309 546.646C467.552 546.646 466.796 546.646 465.788 546.899C464.78 546.899 464.528 546.899 462.259 547.152C455.454 547.405 447.892 547.658 439.827 547.912C362.7 550.696 266.417 550.696 188.029 547.912C173.41 547.405 146.189 546.646 127.537 546.393C95.7789 545.886 86.7051 545.633 48.3936 544.368C41.8403 544.115 32.0103 543.861 0 543.608C6.55329 537.786 36.0431 508.675 75.1108 470.451C101.576 444.378 127.285 419.571 132.326 415.014L141.652 406.914L135.603 413.242C129.554 419.571 129.302 421.849 135.351 416.027C137.115 414.508 143.164 408.686 148.709 403.623C181.728 372.993 207.941 347.426 224.828 329.201C231.382 322.113 242.976 309.962 250.285 301.862C271.458 279.332 290.865 259.081 306.997 242.121C315.314 233.514 322.624 225.667 329.177 218.832C332.958 214.782 336.234 211.238 339.007 208.454C358.919 187.19 368.245 177.318 380.595 164.661C386.896 158.332 393.702 151.498 403.028 141.878C406.304 138.588 410.589 134.284 416.134 128.715C417.394 127.45 418.403 126.184 418.151 126.184C417.899 126.184 417.899 125.678 417.899 125.425C418.151 125.171 417.646 124.665 416.89 124.412C415.882 124.159 416.134 124.159 417.646 123.906C418.907 123.653 419.915 123.399 419.915 123.399C420.167 123.146 422.183 122.893 422.435 123.146C422.94 123.653 423.948 124.159 424.956 124.412C425.712 124.412 425.964 125.171 425.712 125.931C425.46 126.69 425.208 127.703 425.208 128.209C425.208 128.715 424.704 128.968 423.948 128.715C423.192 128.462 422.435 128.462 421.931 128.462C421.427 128.462 421.679 128.715 422.687 128.968C423.948 129.222 423.948 129.728 422.435 131.5C420.671 133.525 420.671 134.031 422.183 134.791C423.192 135.55 431.509 126.943 433.022 123.399C433.778 121.881 434.534 120.615 435.29 120.615C436.046 120.615 436.55 120.615 436.55 120.868V121.374L437.306 120.615C437.81 120.362 439.071 119.855 440.079 119.602C441.087 119.349 441.843 119.349 441.843 119.602C441.843 119.602 442.851 119.855 444.112 119.602C445.372 119.602 446.128 119.855 446.128 120.362C445.876 120.868 446.128 121.121 446.632 120.868C447.892 120.615 447.892 122.64 446.38 124.918C445.12 126.943 445.624 127.45 448.145 126.943C450.413 126.437 452.681 126.437 451.925 127.197C451.673 127.45 450.665 127.703 449.909 127.703C447.892 127.703 447.64 128.209 449.405 128.715C450.413 128.968 450.665 129.728 449.909 130.487C449.405 130.994 449.405 131.5 450.161 131.5C451.169 131.5 453.438 129.475 452.429 129.222C452.429 129.222 452.681 128.462 453.438 127.45C453.942 126.437 454.95 125.931 455.706 125.931C456.462 125.931 457.218 125.678 457.47 125.678C457.722 125.425 456.966 125.425 456.21 125.425C455.202 125.425 454.698 125.425 454.95 125.171C455.202 124.918 455.958 124.665 456.714 124.918C457.47 124.918 458.479 124.665 458.731 124.159C459.487 123.399 459.235 123.399 457.47 123.906C455.958 124.412 455.706 124.159 456.714 123.399C457.47 122.64 458.227 122.387 458.227 122.64C458.479 122.893 459.235 123.146 460.243 123.146C462.007 123.146 464.024 122.64 469.065 118.084C474.358 113.78 482.675 105.68 498.302 90.7446C500.823 88.4664 503.091 86.1882 505.108 84.4162C489.229 83.9099 481.163 83.9099 476.878 83.9099C472.593 83.9099 472.089 84.4162 471.081 84.9225C470.073 85.6819 469.317 85.935 467.552 85.935C465.788 85.935 463.015 85.6819 457.722 84.9225C455.202 84.6693 449.153 84.1631 444.364 83.6568C436.298 83.1505 435.542 83.1505 435.29 84.9225C435.038 86.9476 438.315 88.2133 444.112 88.4664C447.64 88.4664 448.145 88.9727 446.884 90.7446C445.876 92.2635 445.876 92.5166 447.388 91.7572C450.161 89.9852 454.95 90.4915 453.942 92.5166C453.69 93.0229 454.446 93.0229 455.706 92.5166C456.966 92.0103 457.47 92.2635 457.218 92.5166C456.714 93.0229 459.487 93.5292 464.276 94.0354C468.813 94.2886 475.366 94.5417 482.675 94.2886C480.659 96.5668 478.643 98.5919 476.626 100.617C471.837 106.186 470.577 107.199 466.796 108.717C463.52 109.983 462.259 110.996 460.999 112.261C459.991 113.527 458.227 114.54 456.714 115.046C454.698 115.552 454.698 115.046 456.462 113.274C457.722 112.008 458.983 110.489 459.235 109.983C459.487 109.224 462.511 105.933 467.804 100.617C458.731 100.87 444.616 100.617 441.591 100.111C438.567 99.6045 435.038 99.3513 434.282 99.3513C433.526 99.3513 433.022 99.0982 433.526 98.3388C434.03 97.5794 434.03 97.5794 432.769 98.3388C431.761 99.0982 430.753 99.3513 429.997 98.845C428.737 98.0856 426.216 97.5794 420.671 97.0731C417.899 96.82 414.37 96.5668 410.085 96.3137C409.581 96.3137 409.077 96.3137 408.321 96.3137H407.312C406.304 96.3137 405.296 96.3137 404.288 96.3137C400.003 96.3137 395.718 96.3137 391.181 96.0605C381.855 96.0605 372.025 95.8074 360.935 95.8074C323.128 95.3011 306.997 95.5543 294.394 96.5668C285.32 97.3262 277.255 97.5794 276.499 97.0731C275.742 96.5668 270.701 96.5668 265.408 96.82C257.091 97.3262 254.822 97.0731 250.285 95.048C247.261 93.7823 245.244 93.276 245.749 93.7823C246.757 95.048 246.253 95.3011 243.48 94.2886C242.472 94.0354 241.464 93.0229 241.464 92.0103C241.464 90.7446 242.22 90.4915 244.74 90.9978C247.009 91.5041 247.765 91.2509 247.261 90.4915C246.253 89.2258 252.806 86.6944 260.367 85.6819C264.652 85.1756 265.66 84.6693 264.652 83.6568C263.14 82.138 266.417 81.1254 272.214 80.8723C273.978 80.8723 277.003 79.8597 279.019 78.594C282.296 76.3158 284.564 75.5564 288.597 75.3032C289.353 75.3032 289.857 74.797 289.605 74.2907C289.353 73.7844 290.109 73.025 291.37 72.5187C292.63 72.0125 293.386 70.9999 293.134 70.4936C292.882 69.9874 296.158 69.4811 300.695 69.2279C306.745 68.9748 309.769 68.2154 312.29 66.6966L315.566 64.4183L291.37 64.9246C278.011 65.1777 265.66 65.9371 263.896 66.1903C261.628 66.6966 261.124 66.6965 261.628 65.684C262.132 64.9246 262.132 64.4183 261.376 64.4183C260.619 64.4183 259.863 64.9246 259.359 65.4309C258.855 65.9371 256.587 66.4434 254.57 66.4434C250.79 66.4434 250.537 66.1903 253.31 65.1777C256.335 63.912 257.091 62.3932 254.822 62.3932C254.066 62.3932 253.562 61.6338 253.562 60.8744C253.562 59.8618 252.806 59.3556 251.798 59.3556C250.79 59.3556 249.277 58.343 248.521 57.3305C247.261 55.5585 247.765 54.7991 250.537 52.5208C252.554 51.002 255.578 49.4832 257.343 49.23C260.367 48.7238 260.619 48.2175 260.872 42.9016C260.872 38.5983 261.628 36.5732 263.14 35.8137C264.904 34.8012 264.904 34.548 261.628 34.0418C258.351 33.5355 258.099 33.0292 258.351 29.2321C258.603 26.4476 258.099 24.9288 257.343 24.9288C255.074 24.9288 257.595 23.1568 260.872 22.3974C262.384 22.1443 261.124 22.1443 258.351 22.3974C255.578 22.6506 252.554 22.3974 251.798 22.1443C250.79 21.638 252.806 21.1317 256.083 21.1317C263.392 20.8786 266.417 18.8535 266.165 14.297C265.913 11.7656 265.156 10.7531 262.384 9.99367C260.619 9.4874 259.107 8.2217 259.107 7.71543C259.107 6.44974 257.595 5.94347 255.074 6.19661C253.562 6.44974 253.814 4.42464 255.578 3.66523C256.335 3.15895 259.611 2.39953 262.384 2.14639C265.156 1.64012 269.189 1.13385 271.458 0.627571C273.474 0.374432 276.499 -0.131847 278.263 -0.384987C279.775 -0.638123 281.035 -1.39753 281.035 -1.90381C281.035 -2.41008 280.531 -2.66322 279.775 -2.41009C278.011 -1.39753 269.441 -4.94147 269.441 -6.71343C269.441 -7.47284 269.945 -8.23225 270.701 -8.23225C271.458 -8.23225 271.962 -8.73853 271.962 -9.24481C271.962 -9.75109 270.449 -10.2574 268.433 -10.2574C266.165 -10.2574 264.4 -11.0168 263.14 -12.5356C261.628 -14.3076 261.88 -14.5607 263.644 -14.5607C265.66 -14.5607 264.904 -16.0795 262.888 -16.3327C262.132 -16.3327 261.124 -16.5858 260.367 -16.5858C259.611 -16.5858 259.107 -17.3452 259.107 -18.3578C259.107 -19.3703 258.603 -19.8766 257.847 -19.8766C256.083 -19.8766 256.335 -23.4205 258.099 -24.9394C259.359 -25.9519 259.107 -26.205 256.587 -25.6988C254.318 -25.1925 253.814 -25.4456 254.066 -26.205C254.318 -26.9645 258.603 -28.4833 263.896 -30.0021C268.937 -31.2678 273.726 -32.7866 274.734 -33.546C276.499 -34.5586 288.345 -36.3306 301.199 -37.3431C304.98 -37.5962 310.021 -38.1025 312.038 -38.3557C314.054 -38.6088 321.363 -39.1151 327.917 -39.6213C334.722 -39.8745 341.275 -40.3808 343.04 -40.6339C347.577 -41.3933 369.505 -43.1653 380.343 -43.6716C385.636 -43.9247 396.978 -44.6841 405.296 -45.1904C406.052 -45.1904 406.808 -45.1904 407.564 -45.4435H408.069H409.077C409.833 -45.4435 410.337 -45.4435 411.093 -45.4435C413.866 -45.4435 416.638 -45.6967 419.663 -45.6967C425.46 -45.9498 431.761 -46.2029 438.063 -46.2029C451.169 -46.4561 465.032 -46.9623 480.155 -47.2155C510.149 -47.9749 544.175 -48.4812 579.966 -48.7343C616.514 -48.9874 655.329 -49.4937 666.168 -49.7469C671.965 -50 719.098 -50 830 -50C788.16 -7.97911 717.586 62.8995 655.834 124.918C594.081 186.937 540.899 240.096 533.589 247.184C532.077 248.703 524.768 256.044 513.173 267.435C502.335 278.32 487.464 293.002 470.829 309.709C456.966 323.631 440.079 340.592 426.216 354.514C423.192 357.552 419.915 360.336 419.159 360.59C418.403 360.843 418.655 360.843 419.663 360.843C420.923 360.59 420.923 360.843 419.411 361.349C418.151 361.602 415.63 363.627 413.614 365.652C406.556 372.487 402.271 376.284 399.751 378.309C400.507 378.562 400.507 378.562 400.003 378.815C399.247 379.322 399.751 379.069 401.515 378.562C403.028 378.056 403.784 377.803 403.028 378.056C402.271 378.562 405.296 378.816 409.833 379.069C414.118 379.322 418.907 379.828 423.192 380.334C427.476 380.841 431.005 381.6 431.257 382.106C431.761 382.613 431.761 382.613 437.306 382.866C439.323 382.866 442.095 383.372 443.608 383.878C445.12 384.385 447.64 385.144 448.901 385.397C453.438 386.157 457.47 387.169 461.251 387.928C462.259 388.182 463.267 388.435 464.024 388.688C464.024 388.688 465.032 388.688 465.536 388.941L467.3 389.194C468.561 389.194 469.821 389.447 471.081 389.447C475.87 389.954 480.659 390.46 485.448 390.966C497.294 392.232 512.669 394.004 519.475 394.51C526.28 395.016 535.354 396.282 539.891 397.041C544.427 397.801 550.981 398.813 554.257 399.32C557.786 399.573 560.307 400.332 560.307 400.839C560.307 401.345 561.063 401.851 562.323 401.851C564.591 401.851 564.844 403.117 562.575 404.636C559.298 407.42 564.087 408.939 578.202 409.445C581.479 409.698 585.26 409.698 586.772 409.951C591.057 410.205 590.301 411.723 585.26 413.749C581.479 415.267 579.967 415.267 575.43 414.255C572.405 413.495 567.364 412.736 564.087 412.736C560.811 412.483 556.274 412.23 553.753 411.977C547.2 411.217 539.134 410.458 527.54 409.698C521.995 409.445 514.938 408.686 512.165 408.18C509.393 407.673 506.62 407.42 506.368 407.673C505.864 407.926 501.075 407.673 495.53 407.167C489.985 406.661 483.179 406.661 480.407 407.167C476.878 407.673 476.122 408.18 478.391 408.18C480.155 408.18 486.204 408.686 491.749 409.445C497.294 409.951 506.116 410.711 510.905 410.964C515.694 411.217 522.247 412.483 525.272 413.495C528.296 414.508 531.321 415.52 532.077 415.52C535.102 415.52 532.833 417.039 529.557 417.292C527.54 417.292 525.776 417.039 525.776 416.786C525.776 416.28 521.239 415.774 515.946 415.774C510.401 415.521 505.612 415.267 505.36 415.014C505.108 414.761 498.806 414.255 491.245 414.002C470.829 412.736 466.544 412.989 467.3 414.761C467.552 415.52 468.813 416.027 470.325 416.28C471.585 416.28 473.097 416.533 473.349 416.533C473.602 416.533 475.618 416.786 477.886 417.039C479.903 417.292 488.977 417.799 497.798 418.558C506.62 419.318 519.475 420.33 526.532 420.836C533.589 421.343 546.192 422.102 554.51 422.355C562.827 422.608 573.161 423.115 577.194 423.621C581.227 423.874 586.52 423.621 589.04 422.862C593.829 421.596 596.602 422.355 593.325 423.874C592.317 424.38 591.813 424.887 592.569 424.887C593.325 424.887 594.333 425.14 595.089 425.14C595.846 425.393 597.61 425.393 599.374 425.646C600.887 425.646 602.399 426.405 602.399 426.912C602.399 427.671 597.106 427.924 583.495 427.418C571.901 427.165 565.6 427.165 567.112 427.671C569.633 428.684 557.282 428.177 547.956 427.165C545.94 426.912 539.134 426.405 532.581 425.899C526.28 425.393 520.483 424.887 519.727 424.38C518.97 423.874 517.206 423.621 515.946 423.621C503.091 423.874 483.431 423.115 483.431 422.355C483.431 421.849 484.44 421.343 485.7 421.343C487.212 421.343 487.464 421.09 486.204 420.583C483.684 419.824 481.163 422.102 481.667 424.38C482.171 425.646 482.675 426.405 483.179 426.659C483.684 426.659 485.448 426.912 487.212 427.165C488.977 427.418 496.538 427.924 503.848 428.177C511.157 428.684 517.962 429.19 519.223 429.19C520.231 429.443 527.792 429.696 535.858 430.202C543.923 430.456 551.989 431.215 553.753 431.468C555.518 431.721 569.633 432.228 585.008 432.481C612.985 432.987 620.042 433.746 620.042 436.784C620.042 438.05 619.286 438.05 616.262 437.29C613.993 436.784 612.481 436.784 612.481 437.29C612.481 437.797 609.204 438.05 604.667 437.797L596.854 437.29L597.358 440.075C597.862 442.1 597.61 442.606 595.846 442.353C592.317 441.594 580.975 441.341 578.706 442.353C577.446 442.859 568.372 442.859 558.29 442.606C548.208 442.353 540.899 442.353 542.159 442.859C545.94 444.378 556.022 445.138 580.219 445.138C593.829 445.138 606.432 445.644 608.952 446.15C611.473 446.656 603.911 446.91 591.561 446.91C577.698 446.91 569.633 447.416 568.624 448.175C567.112 449.441 571.901 449.947 579.966 449.441C582.991 449.188 583.243 449.441 581.731 450.2C579.462 451.466 565.348 451.466 564.339 450.2C564.087 449.694 562.071 449.694 560.055 450.2C556.274 451.213 554.51 449.947 557.786 448.682C558.542 448.428 557.282 448.428 554.762 448.935C550.225 449.694 521.491 449.694 506.368 448.682C500.823 448.428 499.059 448.428 500.571 449.188C502.083 449.694 506.116 450.2 509.645 450.2C515.19 450.2 534.85 453.238 542.663 455.263C544.175 455.769 544.68 455.516 544.175 454.757C543.419 453.997 545.436 453.491 550.225 453.744C554.005 453.744 557.03 454.251 556.778 454.504C556.526 454.757 558.794 455.263 561.567 455.263C570.389 455.516 574.421 456.529 572.405 457.794C571.145 458.554 571.649 458.807 574.421 458.554C585.008 458.048 589.796 459.06 582.739 460.073C581.227 460.326 578.958 461.085 577.95 461.592C575.43 462.857 576.69 463.11 582.739 462.857C585.26 462.857 585.512 462.857 583.495 463.617C581.227 464.376 581.227 464.629 583.495 466.148C585.764 467.667 598.618 470.198 600.383 469.439C600.635 469.186 601.643 469.692 602.651 470.705C604.163 471.97 602.651 472.223 591.057 471.97C583.747 471.717 577.194 471.211 576.186 470.705C575.43 470.198 573.917 469.945 572.909 470.198C571.901 470.451 572.657 471.211 574.674 471.97C579.462 473.742 578.958 475.008 573.665 475.008C568.372 474.755 566.356 475.767 569.128 477.286C570.389 478.046 569.633 478.046 566.608 477.792C555.014 476.527 518.214 475.008 521.239 476.274C524.516 477.286 560.811 479.564 576.186 479.564C587.276 479.564 598.366 478.805 602.651 477.792C605.424 477.033 609.96 478.299 609.96 479.564C609.96 480.071 608.952 480.577 607.692 480.577C603.659 480.83 621.555 483.361 630.881 484.121C636.678 483.108 641.719 483.361 643.231 483.615ZM594.081 489.69C595.846 490.196 598.366 490.702 599.878 490.449C602.399 490.196 602.399 490.196 600.13 489.437C598.87 488.93 596.098 488.677 594.333 488.677H590.805L594.081 489.69ZM574.421 461.338C574.673 461.338 574.926 460.832 574.926 460.326C574.926 459.82 574.421 459.313 573.665 459.313C572.909 459.313 572.657 459.82 573.161 460.326C573.413 460.832 573.917 461.338 574.421 461.338ZM557.03 406.408C558.542 406.408 559.551 406.408 559.551 406.154C559.551 405.395 557.786 404.382 556.022 404.382C553.501 404.636 554.257 406.154 557.03 406.408ZM510.149 474.502C512.669 474.755 514.938 475.008 514.938 474.755C514.938 473.489 512.669 472.983 508.636 472.983C503.091 472.983 503.848 473.742 510.149 474.502ZM485.7 447.416C487.716 447.669 489.733 447.416 489.985 446.91C490.237 446.403 488.977 445.897 486.96 445.897C484.944 445.644 482.927 445.897 482.675 446.403C482.171 446.656 483.684 447.163 485.7 447.416ZM422.94 315.025C418.655 320.088 418.151 322.366 421.427 320.088C422.687 319.075 423.696 318.062 423.444 317.556C423.192 317.05 424.452 315.278 426.216 313.506C426.972 312.747 427.476 311.987 427.981 311.481C428.485 310.721 428.989 310.215 429.241 309.962C429.745 309.203 429.745 308.949 428.989 309.203C428.737 309.456 428.233 309.709 427.476 310.215C427.224 310.468 426.72 310.721 426.468 311.228C426.216 311.481 425.712 311.734 425.46 312.24C424.704 313 423.696 314.012 422.94 315.025ZM613.741 139.094C559.298 193.519 509.897 243.134 474.106 279.079C460.747 292.496 449.909 303.38 442.347 310.975C438.567 314.772 435.794 317.809 433.778 319.581C432.769 320.594 432.517 320.847 432.517 321.1C432.769 321.1 432.769 321.353 433.022 321.1C433.526 320.847 433.526 320.847 436.298 318.062C441.591 313 451.673 302.874 472.089 282.623C482.171 272.498 494.27 260.853 505.36 249.715C520.231 235.033 533.841 221.617 543.167 212.757C565.348 191.24 613.237 143.397 649.532 106.945C711.537 44.6736 745.311 10.7531 752.873 3.41208C754.637 1.64012 763.459 -7.47284 772.533 -16.5858C774.801 -19.1172 778.834 -23.1674 791.436 -35.8243C781.354 -35.8243 747.832 -35.8243 715.821 -35.5711C672.469 -35.5711 621.303 -35.318 602.399 -35.318C592.821 -35.318 584.251 -35.318 577.95 -35.318C571.649 -35.5711 567.868 -35.5711 567.868 -35.8243C567.868 -36.3306 557.282 -36.8368 544.175 -36.8368C531.069 -36.8368 520.735 -36.3306 520.987 -35.8243C520.987 -35.5711 525.02 -35.318 530.817 -35.0649C536.866 -34.8117 544.932 -34.5586 553.753 -34.3055C571.397 -33.7992 589.292 -33.2929 593.325 -33.0398C597.61 -32.7866 618.278 -32.5335 639.702 -32.5335C661.379 -32.5335 675.745 -32.0272 672.217 -31.5209C666.672 -30.7615 666.924 -30.7615 673.729 -30.5084C678.77 -30.5084 681.039 -30.7615 680.282 -31.2678C679.526 -31.7741 682.299 -32.2803 688.852 -32.7866C691.373 -33.0398 725.651 -33.0398 785.135 -33.0398C744.807 7.46229 682.299 70.4936 613.741 139.094ZM435.794 302.368C434.786 303.38 434.282 304.393 434.786 304.899C435.29 305.406 436.046 304.646 436.802 303.38C437.558 302.115 438.062 301.102 437.81 300.849C437.81 300.596 436.802 301.355 435.794 302.368ZM448.649 293.002C447.388 294.014 445.876 295.533 445.12 296.546C444.364 297.558 445.624 296.799 447.388 294.774C449.153 293.002 449.909 291.989 448.649 293.002ZM454.194 282.876C452.177 284.395 449.909 286.926 449.657 288.192C448.649 290.977 449.405 290.47 453.69 286.167C454.698 285.155 455.958 284.395 456.21 284.901C456.462 285.155 460.243 282.117 464.276 277.814C468.308 273.51 479.147 263.132 488.22 254.778C504.604 239.337 507.628 235.539 499.563 240.096C497.294 241.362 488.725 249.209 476.878 261.106C466.544 271.485 456.21 281.357 454.194 282.876ZM507.124 238.071C505.108 240.096 503.847 242.121 504.352 242.627C504.856 243.134 505.612 242.627 506.116 241.615C506.62 240.602 507.376 240.096 507.88 240.349C508.384 240.602 511.157 237.818 514.182 234.274C514.686 233.768 514.938 233.514 515.442 232.755C516.198 231.996 516.702 231.236 517.458 230.73C518.718 229.211 520.231 227.945 521.491 226.427C524.011 223.642 526.532 221.364 528.044 219.845C531.321 216.807 552.745 195.544 575.934 172.255C590.553 157.826 601.139 147.194 608.196 140.36C615.254 133.525 619.034 130.234 619.538 130.234C620.547 130.234 622.311 128.715 624.075 126.437C625.588 124.159 628.108 121.627 629.116 120.362C632.897 116.565 652.809 96.0605 664.907 83.6568C671.461 76.8221 677.258 71.253 678.014 71.253C678.77 70.9999 680.534 69.4811 681.795 67.9622C687.592 60.8744 696.161 52.0146 697.17 51.7614C697.422 51.7614 701.455 47.7112 707.756 41.6359C714.057 35.5606 722.375 27.207 731.448 17.8409C749.596 -0.384983 768.248 -19.1172 773.289 -23.4205C780.094 -29.4958 781.354 -31.0147 778.078 -29.2427C773.541 -26.9645 773.793 -27.2176 764.215 -17.8515C759.93 -13.8013 753.881 -8.73853 750.604 -6.46029C746.824 -3.67577 741.278 1.64013 733.213 10.5C723.635 20.8786 627.1 118.337 614.497 130.234C612.481 132.006 606.18 138.841 600.635 145.169C593.073 153.523 590.049 156.56 589.544 155.801C589.292 155.042 591.561 152.004 594.585 149.219C598.114 145.676 599.374 143.904 597.862 144.157C596.35 144.41 590.805 149.473 578.454 161.876C565.348 175.293 548.964 192 535.858 205.922C529.305 213.01 523.255 219.339 518.97 224.148C516.702 226.427 514.938 228.452 513.677 229.97C513.425 230.224 512.921 230.73 512.921 230.983C512.669 231.236 512.669 231.489 512.417 231.489C512.165 231.742 511.913 231.996 511.913 232.249C511.409 233.261 509.393 236.046 507.124 238.071ZM749.596 -26.7113C755.897 -26.9645 764.971 -27.977 769.004 -28.4833C776.565 -29.749 776.817 -29.749 774.549 -30.5084C773.289 -30.7615 767.744 -31.0147 761.947 -30.7615C756.149 -30.5084 752.873 -30.7615 754.133 -31.2678C755.393 -31.7741 753.881 -32.0272 750.352 -31.5209C743.043 -30.5084 717.838 -30.7615 716.83 -31.5209C716.326 -31.7741 715.065 -31.7741 713.301 -31.2678C710.528 -30.5084 717.838 -29.749 732.709 -29.4958C737.75 -29.4958 741.026 -29.2427 740.27 -28.9896C739.514 -28.7364 738.506 -27.977 738.254 -27.2176C738.254 -26.7113 741.531 -26.4582 749.596 -26.7113ZM701.203 -30.5084C702.463 -30.2552 705.235 -30.2552 707.252 -30.5084C709.016 -30.7615 708.008 -31.0147 704.731 -31.0147C701.455 -31.0147 699.942 -30.7615 701.203 -30.5084ZM483.431 81.3786C486.204 81.6317 489.229 81.6317 490.489 81.1254C492.505 80.366 492.757 80.366 492.001 80.366C491.749 80.366 490.741 80.1129 489.985 79.6066C489.229 79.3534 486.204 79.3534 483.431 79.8597L478.391 80.6191L483.431 81.3786ZM468.309 83.1505C468.561 83.4037 469.569 83.4037 470.577 83.1505C471.585 82.8974 471.333 82.6442 470.073 82.6442C468.813 82.6442 468.056 82.8974 468.309 83.1505ZM316.07 61.1275C329.933 61.1275 349.845 59.6087 342.284 59.1024C318.591 57.8367 272.466 59.3556 269.945 61.6338C269.441 62.1401 274.986 62.1401 282.296 61.6338C289.605 61.1275 296.915 60.8744 298.175 61.1275C299.435 61.1275 307.753 61.1275 316.07 61.1275ZM320.859 -3.67577C332.202 -5.44774 314.81 -5.95401 291.117 -4.43519C282.8 -3.92891 281.288 -3.42264 284.312 -2.91636C286.581 -2.41009 292.63 -2.66322 297.671 -3.1695C302.964 -3.67577 309.517 -3.92891 312.29 -3.67577C315.062 -3.1695 318.843 -3.1695 320.859 -3.67577ZM285.32 79.1003C288.597 79.1003 291.117 78.594 291.117 78.0878C291.117 77.5815 288.849 77.0752 286.077 77.0752C283.304 77.0752 280.783 77.5815 280.279 78.0878C279.775 78.8472 281.792 79.1003 285.32 79.1003ZM266.669 44.4204C267.173 44.4204 267.677 43.661 267.677 42.9016C267.677 41.889 267.173 41.3828 266.669 41.3828C266.165 41.3828 265.66 42.1422 265.66 42.9016C265.66 43.9141 266.165 44.4204 266.669 44.4204Z" fill="#131D22"/>
</svg>
